<svg width="149" height="127" viewBox="0 0 149 127" fill="none" xmlns="http://www.w3.org/2000/svg">
<path opacity="0.25" d="M55.5614 2.75789C57.0222 3.09972 58.5015 3.73555 59.9396 4.54686C68.575 9.41832 71.8712 20.8324 80.2904 26.0686C87.5591 30.5893 98.1656 34.4419 108.363 37.3607C120.989 40.9747 133.433 48.2662 134.701 61.3377C136.197 76.7491 131.767 93.6885 128.292 102.511C106.751 145.051 49.0401 123.289 20.7577 101.474C18.615 99.8208 16.6855 97.9212 15.0134 95.7936C-10.0759 63.8694 1.78785 33.6479 11.2037 22.2316C27.1885 -0.0240669 48.7679 1.1682 55.5614 2.75789Z" fill="#7741FB"/>
<path d="M63.2222 90.25C56.9925 89.6425 52.3256 87.7876 49.1958 84.6849C43.582 79.1203 43.582 70.1632 43.582 52.25V49.875C43.582 31.9616 43.582 23.005 49.1958 17.44C54.8096 11.875 63.8448 11.875 81.9154 11.875H101.082C119.152 11.875 128.188 11.875 133.801 17.44C139.415 23.005 139.415 31.9616 139.415 49.875V52.25C139.415 70.1632 139.415 79.1203 133.801 84.6849C128.188 90.25 119.152 90.25 101.082 90.25C98.3963 90.3094 96.2573 90.5117 94.1562 90.9863C88.4138 92.2968 83.0965 95.2095 77.8418 97.7498C70.3545 101.369 66.6108 103.179 64.2614 101.484C59.7668 98.1659 64.16 87.884 65.1445 83.125" fill="#7741FB"/>
<path d="M72.332 64.125H110.665M72.332 40.375H91.4987" stroke="white" stroke-width="5" stroke-linecap="round" stroke-linejoin="round"/>
</svg>
