<svg width="124" height="32" viewBox="0 0 124 32" fill="none" xmlns="http://www.w3.org/2000/svg">
<path d="M5.2615 5.71235C4.89863 6.18559 0 17.2593 0 17.6142C0 17.9691 1.08859 18.608 3.51522 19.7438L4.78524 20.3353L5.30685 19.7438L5.82847 19.1522L6.28204 19.6965C6.53151 19.9804 6.96241 20.5719 7.25723 20.9978L7.75617 21.8023L7.16652 23.0564C6.57687 24.2395 6.57687 24.3578 6.87169 25.1387C7.23456 25.9905 8.20975 26.5584 9.02619 26.3217C9.34369 26.2508 9.52512 26.3927 9.72923 26.9133C10.0694 27.7651 11.0673 28.262 12.0198 28.0727C12.5414 27.9544 12.7002 28.0254 12.8136 28.3803C12.995 28.9955 14.197 29.6344 14.8773 29.4924C15.2629 29.4214 15.4443 29.5161 15.5577 29.8473C15.6257 30.1076 16.034 30.4626 16.4649 30.6518C17.1452 30.9594 17.3266 30.9358 17.8936 30.6282C18.2565 30.4389 18.5967 30.1549 18.642 29.9893C18.7101 29.8 19.1183 29.942 19.8894 30.4626C20.5017 30.8885 21.2954 31.2197 21.6356 31.2197C22.5201 31.2197 23.5633 30.5809 23.7221 29.942C23.8355 29.4924 24.0396 29.3741 24.9014 29.2558C25.9673 29.1375 26.9878 28.3093 26.9878 27.5758C26.9878 27.3865 27.4414 27.1262 27.9857 26.9843C29.0516 26.724 29.9361 25.8248 29.9361 25.044C29.9361 24.7601 30.1629 24.5471 30.5031 24.4525C31.7504 24.1212 32.4534 22.039 31.5917 21.1635C31.2515 20.8086 31.2741 20.7139 31.9092 20.0514L32.6122 19.3415L33.0658 19.8148L33.542 20.3117L34.812 19.7201C37.4201 18.537 38.3273 17.9691 38.3273 17.5432C38.3046 16.9044 33.2472 5.85432 32.839 5.57038C32.5442 5.38108 31.9545 5.59404 30.2309 6.44586C28.0991 7.51064 28.0084 7.60529 28.0084 8.33881C27.9857 9.47457 27.3053 9.45091 25.8766 8.26782C23.4499 6.25657 20.7738 5.94897 17.5761 7.27403C15.1268 8.26782 12.4507 9.07232 11.4075 9.07232C10.3416 9.09598 10.3189 9.09598 10.3869 8.38613C10.455 7.69994 10.3642 7.62895 8.27778 6.54051C5.96454 5.35742 5.62436 5.26278 5.2615 5.71235ZM7.80153 7.08473C8.86743 7.60529 9.75191 8.10219 9.75191 8.19683C9.75191 8.29148 9.13958 9.71119 8.41386 11.3438C7.66545 12.9765 6.55419 15.4373 5.91918 16.8334C5.30685 18.2531 4.69452 19.3888 4.58113 19.3888C4.37702 19.3888 0.952512 17.7798 0.703045 17.5669C0.635008 17.5196 5.69239 6.13826 5.78311 6.13826C5.80579 6.13826 6.71294 6.56417 7.80153 7.08473ZM35.1522 11.8171C36.5583 14.9404 37.6696 17.5432 37.6242 17.5669C36.6037 18.2294 33.7461 19.4362 33.5874 19.2705C33.3606 19.0339 28.5754 8.40979 28.5754 8.17317C28.5754 8.0312 32.1133 6.20925 32.4534 6.16192C32.5215 6.13826 33.7461 8.69373 35.1522 11.8171ZM13.3352 11.4622C10.2508 14.5855 9.95602 15.1061 10.8632 16.0525C12.2693 17.5196 14.9454 17.0937 17.7349 14.9641L18.7781 14.1596L24.6519 17.6379C27.8723 19.5308 30.6845 21.2581 30.9113 21.4474C31.7277 22.2283 31.0927 23.8846 29.9815 23.8846C29.8227 23.8846 28.7795 23.2457 27.6682 22.4649C26.5569 21.684 25.5364 21.0452 25.4003 21.0452C24.72 21.0452 25.4003 21.7787 27.2146 23.0328C29.3464 24.4761 29.5732 24.8547 28.8702 25.7302C28.0991 26.6767 27.4641 26.6057 25.5137 25.3043C23.7901 24.1685 23.1324 23.8846 23.1324 24.3342C23.1324 24.4288 23.8582 25.0203 24.72 25.6356C26.4436 26.8186 26.6477 27.3155 25.8539 28.1437C25.1735 28.8536 24.4478 28.7352 22.883 27.6705C21.3862 26.653 21.0913 26.5584 21.0913 27.0079C21.0913 27.1736 21.613 27.6705 22.2253 28.0964C22.8603 28.4986 23.3592 29.0192 23.3592 29.1848C23.3592 29.6581 22.2706 30.5099 21.6583 30.5099C21.2728 30.5099 19.8667 29.729 19.2997 29.1848C19.2544 29.1375 19.5038 28.5223 19.8667 27.8124C20.4337 26.6767 20.479 26.4637 20.2295 25.8958C20.0708 25.5409 19.6399 25.1387 19.277 24.9967C18.7327 24.7837 18.5967 24.5944 18.5967 24.0502C18.5967 23.1747 17.6895 22.2283 16.8277 22.2283C16.2607 22.2283 16.1473 22.1099 16.034 21.5184C15.8298 20.4773 15.1268 19.8621 14.1062 19.8621C13.63 19.8621 13.1311 19.9804 12.995 20.1224C12.7909 20.3353 12.5868 20.2407 12.2012 19.7438C11.7703 19.2232 11.4528 19.0812 10.6817 19.0576C9.70655 19.0339 9.16226 19.4362 8.41386 20.7376C8.18707 21.1398 8.14171 21.1398 7.89224 20.6902C7.75617 20.43 7.25724 19.8148 6.80366 19.3415L5.96454 18.4424L7.89224 14.1123L9.81995 9.78217H11.3168C12.36 9.75851 13.2445 9.56922 14.2877 9.1433C15.1041 8.81204 15.8752 8.5281 15.9886 8.5281C16.1247 8.5281 14.9227 9.85316 13.3352 11.4622ZM11.7476 20.288C12.1559 20.8322 12.1105 20.9742 10.9085 23.1747C9.59316 25.5882 8.91279 26.1088 7.96028 25.3516C7.64278 25.0913 7.37063 24.6654 7.39331 24.4051C7.41599 23.6953 9.57048 20.075 10.0921 19.8621C10.6591 19.6018 11.3621 19.7911 11.7476 20.288ZM15.0588 20.9505C15.2629 21.1398 15.4216 21.4711 15.4216 21.6604C15.4216 22.2283 12.7002 26.9369 12.2466 27.1972C12.0198 27.3392 11.6343 27.4338 11.4301 27.4338C10.9312 27.4338 10.2055 26.7477 10.2055 26.2744C10.2055 25.8248 12.36 21.8497 12.995 21.0925C13.5393 20.4773 14.5371 20.4063 15.0588 20.9505ZM17.7802 23.7189C17.9617 24.2158 17.8029 24.6181 16.8958 26.2508C16.3061 27.3155 15.5577 28.3567 15.2629 28.5696C14.7413 28.9009 14.6279 28.9009 14.0836 28.5933C13.1311 28.0254 13.2218 27.1262 14.4691 25.0677C15.0588 24.0975 15.7845 23.1747 16.0793 23.0328C16.7824 22.6542 17.5308 22.9618 17.7802 23.7189ZM19.5038 26.0141C19.7079 26.4164 19.5945 26.795 18.8235 28.2383C17.939 29.9183 17.5534 30.2733 16.737 30.084C15.9886 29.9183 16.034 29.1375 16.9184 27.5995C17.372 26.795 17.9163 25.9905 18.0977 25.8248C18.6193 25.3989 19.2317 25.4699 19.5038 26.0141Z" fill="#7741FB"/>
<path d="M51.6806 25V10.0124H46.4463V6.88689H60.7183V10.0124H55.4714V25H51.6806ZM63.7447 25.2134C62.8492 25.2134 62.0626 25.0418 61.3848 24.6987C60.707 24.3473 60.1756 23.8661 59.7906 23.2552C59.4141 22.636 59.2258 21.933 59.2258 21.1464V21.1213C59.2258 20.3012 59.4308 19.6025 59.8409 19.0251C60.2509 18.4393 60.845 17.979 61.6233 17.6443C62.4015 17.3096 63.3472 17.1045 64.4601 17.0292L69.707 16.7029V18.9874L65.0124 19.2887C64.3095 19.3305 63.7739 19.4979 63.4057 19.7908C63.0375 20.0753 62.8534 20.456 62.8534 20.933V20.9581C62.8534 21.4519 63.0417 21.841 63.4183 22.1255C63.7949 22.4017 64.3011 22.5397 64.9371 22.5397C65.4811 22.5397 65.9664 22.4351 66.3932 22.2259C66.8284 22.0083 67.1673 21.7155 67.41 21.3473C67.661 20.9707 67.7865 20.5481 67.7865 20.0795V15.9999C67.7865 15.4058 67.5982 14.9372 67.2217 14.5941C66.8451 14.2426 66.297 14.0669 65.5773 14.0669C64.8911 14.0669 64.3472 14.2091 63.9455 14.4936C63.5438 14.7782 63.297 15.138 63.2049 15.5731L63.1798 15.6861H59.8283L59.8409 15.5355C59.9078 14.707 60.1798 13.9706 60.6568 13.3263C61.1421 12.6819 61.8116 12.1798 62.6651 11.82C63.5271 11.4518 64.548 11.2677 65.7279 11.2677C66.8911 11.2677 67.8995 11.456 68.7531 11.8325C69.6066 12.2007 70.2677 12.7238 70.7363 13.4016C71.2133 14.0794 71.4518 14.8702 71.4518 15.774V25H67.7865V22.9916H67.7112C67.4602 23.4519 67.1338 23.8494 66.7321 24.1841C66.3388 24.5105 65.8911 24.7657 65.389 24.9498C64.8869 25.1255 64.3388 25.2134 63.7447 25.2134ZM79.6623 25.2762C78.4238 25.2762 77.3694 25.0962 76.4991 24.7364C75.6288 24.3766 74.9468 23.8787 74.453 23.2427C73.9677 22.5983 73.6748 21.8535 73.5744 21.0083L73.5618 20.8954H77.1392L77.1644 21.0083C77.2815 21.5355 77.5451 21.9456 77.9552 22.2385C78.3652 22.5314 78.9342 22.6778 79.6623 22.6778C80.1309 22.6778 80.5284 22.6234 80.8548 22.5146C81.1811 22.3975 81.4322 22.2343 81.6079 22.0251C81.792 21.8159 81.8841 21.5648 81.8841 21.2719V21.2594C81.8841 20.8995 81.7543 20.6108 81.4949 20.3933C81.2355 20.1757 80.7753 19.9916 80.1142 19.841L77.8296 19.364C76.9593 19.1799 76.2313 18.9163 75.6455 18.5732C75.0681 18.2217 74.633 17.7907 74.3401 17.2803C74.0472 16.7614 73.9007 16.1673 73.9007 15.4978V15.4853C73.9007 14.6233 74.1309 13.8786 74.5911 13.251C75.0514 12.6233 75.7041 12.138 76.5493 11.7949C77.4028 11.4434 78.3987 11.2677 79.5368 11.2677C80.725 11.2677 81.7334 11.4601 82.5619 11.8451C83.3987 12.2217 84.0389 12.7321 84.4824 13.3765C84.9343 14.0208 85.1728 14.7363 85.1979 15.5229V15.6485H81.8213L81.8087 15.548C81.7502 15.0627 81.5242 14.661 81.1309 14.343C80.746 14.0166 80.2146 13.8535 79.5368 13.8535C79.1183 13.8535 78.7543 13.912 78.4447 14.0292C78.1351 14.1464 77.8966 14.3137 77.7292 14.5313C77.5618 14.7405 77.4782 14.9916 77.4782 15.2844V15.297C77.4782 15.5229 77.5326 15.728 77.6413 15.9121C77.7585 16.0878 77.951 16.2426 78.2188 16.3765C78.4865 16.5104 78.8464 16.6275 79.2983 16.728L81.5828 17.2175C82.997 17.5104 84.0096 17.9497 84.6205 18.5355C85.2397 19.1213 85.5494 19.9079 85.5494 20.8954V20.9079C85.5494 21.7866 85.2983 22.5523 84.7962 23.205C84.2941 23.8577 83.5995 24.3682 82.7125 24.7364C81.8338 25.0962 80.8171 25.2762 79.6623 25.2762ZM87.7849 25V6.88689H91.4502V25H87.7849ZM96.2452 25L92.0903 19.0502L94.4125 16.2635L100.475 25H96.2452ZM90.9983 21.0334V16.9288H91.5255L96.0695 11.5438H100.224L94.0109 18.6108H93.195L90.9983 21.0334ZM107.292 25.2762C105.92 25.2762 104.74 24.9958 103.753 24.4351C102.765 23.8661 102.004 23.0586 101.468 22.0125C100.941 20.9665 100.677 19.728 100.677 18.297V18.2845C100.677 16.8535 100.941 15.615 101.468 14.569C102.004 13.5146 102.753 12.7028 103.715 12.1338C104.686 11.5564 105.828 11.2677 107.142 11.2677C108.456 11.2677 109.59 11.548 110.544 12.1087C111.506 12.661 112.246 13.4434 112.765 14.456C113.293 15.4685 113.556 16.6527 113.556 18.0083V19.138H102.472V16.8284H111.824L110.079 18.9874V17.5815C110.079 16.7949 109.958 16.138 109.715 15.6108C109.472 15.0752 109.133 14.6736 108.698 14.4058C108.272 14.138 107.774 14.0041 107.205 14.0041C106.636 14.0041 106.129 14.1422 105.686 14.4183C105.251 14.6945 104.908 15.1003 104.656 15.6359C104.414 16.1631 104.292 16.8117 104.292 17.5815V19C104.292 19.7447 104.414 20.3807 104.656 20.9079C104.908 21.4351 105.263 21.841 105.723 22.1255C106.184 22.4017 106.732 22.5397 107.368 22.5397C107.87 22.5397 108.305 22.4602 108.673 22.3012C109.041 22.1422 109.343 21.9414 109.577 21.6987C109.811 21.456 109.97 21.2092 110.054 20.9581L110.079 20.8828H113.443L113.405 21.0209C113.305 21.5146 113.108 22.0125 112.816 22.5146C112.523 23.0167 112.125 23.477 111.623 23.8954C111.129 24.3138 110.523 24.6485 109.803 24.8996C109.092 25.1506 108.255 25.2762 107.292 25.2762ZM115.754 25V11.5438H119.419V13.8911H119.495C119.695 13.0627 120.059 12.4183 120.587 11.9581C121.114 11.4978 121.771 11.2677 122.557 11.2677C122.758 11.2677 122.951 11.2802 123.135 11.3053C123.319 11.3304 123.478 11.3639 123.612 11.4057V14.6317C123.461 14.5731 123.269 14.5271 123.034 14.4936C122.8 14.4518 122.549 14.4309 122.281 14.4309C121.679 14.4309 121.164 14.548 120.737 14.7823C120.311 15.0167 119.984 15.3598 119.758 15.8116C119.532 16.2635 119.419 16.8158 119.419 17.4686V25H115.754Z" fill="#7741FB"/>
</svg>
