<svg width="41" height="27" viewBox="0 0 41 27" fill="none" xmlns="http://www.w3.org/2000/svg">
<path d="M11.048 4.89966C9.28949 4.89966 5.84894 3.58863 2.67598 1.71572C1.49573 1.01355 8.21358e-05 1.86406 7.33059e-05 3.23739L2.26388e-05 11.1177C1.01358e-05 13.0624 1.30815 15.5164 2.89456 16.641C4.04403 17.4559 5.45136 18.4615 6.95756 19.5458C14.1827 24.7525 18.2349 27 20.4522 27C21.1785 27 22.8223 26.513 24.0839 25.9137C26.5687 24.79 33.0675 20.4074 33.0675 19.9204C33.0675 19.3211 26.4923 13.4401 25.2307 12.9157C23.3193 12.1666 22.3636 12.2415 17.9291 13.7023C13.1888 15.2381 11.6214 15.5378 10.3217 15.2381C8.52492 14.7886 9.09835 13.4776 12.5771 10.0314C16.0559 6.62274 19.1524 4.74983 22.2107 4.30033C24.275 4.00067 24.3897 3.58863 22.4783 3.25151C19.8023 2.83947 17.7762 3.02675 15.0237 3.96321C13.5328 4.48762 11.7361 4.89966 11.048 4.89966Z" fill="white"/>
<path d="M37.8461 16.699C38.521 16.203 39.1867 15.7787 39.7321 15.4475C40.5427 14.9553 41 14.1453 41 13.197V2.25374C41 0.831059 39.4402 -0.0408726 38.2284 0.704346C34.4437 2.95184 30.4298 4.37525 25.3836 5.19933C22.593 5.64883 20.2993 6.28562 18.9995 6.92241C17.0116 7.89632 11.2774 12.8783 11.2774 13.6274C11.2774 14.1518 13.7622 13.7023 16.5911 12.5786C17.9673 12.0542 20.0699 11.4548 21.255 11.1926C24.6955 10.5184 25.9571 11.0428 30.3915 15.2381C32.4559 17.186 34.3673 18.7592 34.5584 18.7592C34.7878 18.7592 36.2787 17.8227 37.8461 16.699Z" fill="white"/>
</svg>
