<svg width="89" height="59" viewBox="0 0 89 59" fill="none" xmlns="http://www.w3.org/2000/svg">
<path d="M23.8854 10.0635C20.0836 10.0635 12.6452 7.16053 5.78539 3.01337C3.24966 1.46828 0.000177879 3.29347 0.000159238 6.26285L4.25705e-05 24.8475C1.90595e-05 28.5927 2.5037 33.3412 5.53636 35.5388C8.14253 37.4274 11.4632 39.8556 15.042 42.4943C30.6626 54.0234 39.4233 59 44.2169 59C45.7872 59 49.3411 57.9217 52.0685 56.5946C57.4407 54.1064 71.4909 44.402 71.4909 43.3237C71.4909 41.9967 57.2754 28.9746 54.548 27.8134C50.4155 26.1545 48.3493 26.3204 38.7621 29.5552C28.5137 32.9558 25.1251 33.6194 22.3151 32.9558C18.4306 31.9605 19.6703 29.0575 27.1913 21.4268C34.7123 13.8789 41.4069 9.73177 48.0187 8.73645C52.4818 8.0729 52.7297 7.16054 48.5973 6.41405C42.8119 5.50167 38.4315 5.91639 32.4808 7.98996C29.2575 9.15117 25.3731 10.0635 23.8854 10.0635Z" fill="#7741FB"/>
<path d="M81.8219 36.1906C83.4319 34.9789 85.0174 33.9606 86.2562 33.199C87.7881 32.2572 88.6406 30.7098 88.6406 28.9115V4.0816C88.6406 1.00526 85.2515 -0.865528 82.6484 0.773907C74.4662 5.7505 65.7881 8.90234 54.8786 10.7271C48.8452 11.7224 43.8863 13.1324 41.0763 14.5425C36.7785 16.699 24.3813 27.7304 24.3813 29.3893C24.3813 30.5505 29.7534 29.5552 35.8694 27.0669C38.8448 25.9057 43.3904 24.5786 45.9525 23.998C53.3909 22.505 56.1183 23.6662 65.7055 32.9558C70.1685 37.2689 74.3009 40.7525 74.7142 40.7525C75.2101 40.7525 78.4333 38.6789 81.8219 36.1906Z" fill="#7741FB"/>
</svg>
