<svg width="15" height="15" viewBox="0 0 15 15" fill="none" xmlns="http://www.w3.org/2000/svg">
<g clip-path="url(#clip0_194_25535)">
<rect width="15" height="15" fill="#EDEEF2"/>
<path fill-rule="evenodd" clip-rule="evenodd" d="M7.5 1.875C4.3934 1.875 1.875 4.3934 1.875 7.5C1.875 10.6066 4.3934 13.125 7.5 13.125C10.6066 13.125 13.125 10.6066 13.125 7.5C13.125 4.3934 10.6066 1.875 7.5 1.875ZM0.75 7.5C0.75 3.77208 3.77208 0.75 7.5 0.75C11.2279 0.75 14.25 3.77208 14.25 7.5C14.25 11.2279 11.2279 14.25 7.5 14.25C3.77208 14.25 0.75 11.2279 0.75 7.5ZM4.5 6.1875C4.5 5.87684 4.75184 5.625 5.0625 5.625H5.8125C6.12316 5.625 6.375 5.87684 6.375 6.1875C6.375 6.49816 6.12316 6.75 5.8125 6.75H5.0625C4.75184 6.75 4.5 6.49816 4.5 6.1875ZM8.625 6.1875C8.625 5.87684 8.87684 5.625 9.1875 5.625H9.9375C10.2482 5.625 10.5 5.87684 10.5 6.1875C10.5 6.49816 10.2482 6.75 9.9375 6.75H9.1875C8.87684 6.75 8.625 6.49816 8.625 6.1875ZM5.18594 9.05939C5.46381 8.92045 5.80168 9.03308 5.94062 9.31094C6.19185 9.81342 6.79715 10.125 7.5 10.125C8.20285 10.125 8.80814 9.81342 9.05939 9.31094C9.19832 9.03308 9.53619 8.92045 9.81406 9.05939C10.0919 9.19832 10.2045 9.53619 10.0656 9.81406C9.56686 10.8116 8.48465 11.25 7.5 11.25C6.51535 11.25 5.43315 10.8116 4.93438 9.81406C4.79545 9.53619 4.90808 9.19832 5.18594 9.05939Z" fill="#8896AC"/>
</g>
<defs>
<clipPath id="clip0_194_25535">
<rect width="15" height="15" fill="white"/>
</clipPath>
</defs>
</svg>
