<svg width="20" height="20" viewBox="0 0 20 20" fill="none" xmlns="http://www.w3.org/2000/svg">
<path fill-rule="evenodd" clip-rule="evenodd" d="M8.63483 1.67884C9.52187 1.3844 10.4778 1.3844 11.3649 1.67884C12.2482 1.97207 12.9418 2.66752 13.6386 3.64463C14.3331 4.61851 15.1005 5.97639 16.0897 7.72675L16.1285 7.79548C17.1179 9.54611 17.8852 10.9039 18.3635 12.0051C18.844 13.1116 19.0833 14.067 18.8924 14.9848C18.7001 15.9089 18.226 16.7492 17.5355 17.3844C16.8467 18.018 15.9088 18.2853 14.7278 18.4137C13.5536 18.5413 12.0175 18.5413 10.0405 18.5413H10.0405H9.95922H9.95916C7.98216 18.5413 6.44611 18.5413 5.27186 18.4137C4.09089 18.2853 3.15299 18.018 2.46419 17.3844C1.77369 16.7492 1.29957 15.9089 1.1073 14.9848C0.916336 14.067 1.15567 13.1116 1.63622 12.0051C2.11443 10.9039 2.8818 9.5461 3.87115 7.79547L3.90999 7.72676L3.91 7.72674C4.89918 5.97638 5.66657 4.61851 6.36106 3.64463C7.05786 2.66752 7.75145 1.97207 8.63483 1.67884ZM9.73474 9.18906C9.94061 9.21673 10.2254 9.29083 10.4671 9.53249C10.7087 9.77415 10.7828 10.0589 10.8105 10.2648C10.8334 10.4353 10.8333 10.6337 10.8332 10.8002L10.8332 10.833V14.1664C10.8332 14.6266 10.4601 14.9997 9.99984 14.9997C9.5396 14.9997 9.1665 14.6266 9.1665 14.1664V10.833C8.70627 10.833 8.33317 10.4599 8.33317 9.9997C8.33317 9.53947 8.70627 9.16637 9.1665 9.16637L9.19932 9.16636C9.36588 9.16625 9.56419 9.16613 9.73474 9.18906ZM9.99604 5.83301C9.53786 5.83301 9.16643 6.2061 9.16643 6.66634C9.16643 7.12658 9.53786 7.49967 9.99604 7.49967H10.0035C10.4617 7.49967 10.8331 7.12658 10.8331 6.66634C10.8331 6.2061 10.4617 5.83301 10.0035 5.83301H9.99604Z" fill="#ED9F39"/>
</svg>
