<svg width="32" height="32" viewBox="0 0 32 32" fill="none" xmlns="http://www.w3.org/2000/svg">
<path d="M29.3332 28V4H2.6665V28L29.3332 28Z" stroke="#696F8C" stroke-width="1.5" stroke-linejoin="round"/>
<path d="M10.6663 12.0007L11.3779 11.7635L11.2069 11.2507H10.6663V12.0007ZM9.33301 12.0007V11.2507H8.74743L8.6054 11.8187L9.33301 12.0007ZM16.6663 12.0007V11.2507H15.9163V12.0007H16.6663ZM10.6663 11.2507H9.33301V12.7507H10.6663V11.2507ZM8.6054 11.8187L7.27207 17.1521L8.72728 17.5159L10.0606 12.1826L8.6054 11.8187ZM7.27207 17.1521L6.6054 19.8187L8.06061 20.1826L8.72728 17.5159L7.27207 17.1521ZM9.95483 12.2378L11.7326 17.5712L13.1556 17.0968L11.3779 11.7635L9.95483 12.2378ZM11.7326 17.5712L12.6215 20.2378L14.0445 19.7635L13.1556 17.0968L11.7326 17.5712ZM7.99967 18.084H12.4441V16.584H7.99967V18.084ZM16.6663 12.7507H19.333V11.2507H16.6663V12.7507ZM15.9163 12.0007V16.0007H17.4163V12.0007H15.9163ZM15.9163 16.0007V20.0007H17.4163V16.0007H15.9163ZM19.333 15.2507H16.6663V16.7507H19.333V15.2507ZM20.583 14.0007C20.583 14.691 20.0234 15.2507 19.333 15.2507V16.7507C20.8518 16.7507 22.083 15.5194 22.083 14.0007H20.583ZM19.333 12.7507C20.0234 12.7507 20.583 13.3103 20.583 14.0007H22.083C22.083 12.4819 20.8518 11.2507 19.333 11.2507V12.7507ZM23.9163 11.334V20.6673H25.4163V11.334H23.9163Z" fill="#696F8C"/>
</svg>
