<svg width="50" height="50" viewBox="0 0 50 50" fill="none" xmlns="http://www.w3.org/2000/svg">
<g clip-path="url(#clip0_241_30046)">
<path fill-rule="evenodd" clip-rule="evenodd" d="M43.75 14.0625V43.75C43.75 45.4076 43.0915 46.9973 41.9194 48.1694C40.7473 49.3415 39.1576 50 37.5 50H34.375V46.875H37.5C38.3288 46.875 39.1237 46.5458 39.7097 45.9597C40.2958 45.3737 40.625 44.5788 40.625 43.75V14.0625H34.375C33.1318 14.0625 31.9395 13.5686 31.0604 12.6896C30.1814 11.8105 29.6875 10.6182 29.6875 9.375V3.125H12.5C11.6712 3.125 10.8763 3.45424 10.2903 4.04029C9.70424 4.62634 9.375 5.4212 9.375 6.25V34.375H6.25V6.25C6.25 4.5924 6.90848 3.00269 8.08058 1.83058C9.25268 0.65848 10.8424 0 12.5 0L29.6875 0L43.75 14.0625ZM10.9906 46.3781C11.0085 46.8705 11.1292 47.3537 11.3451 47.7966C11.5609 48.2396 11.867 48.6325 12.2437 48.95C12.65 49.2875 13.1479 49.55 13.7375 49.7375C14.3292 49.9271 15.0219 50.0219 15.8156 50.0219C16.8719 50.0219 17.7667 49.8573 18.5 49.5281C19.2375 49.199 19.799 48.7406 20.1844 48.1531C20.574 47.5615 20.7687 46.8781 20.7687 46.1031C20.7687 45.4031 20.6292 44.8198 20.35 44.3531C20.0641 43.8848 19.6599 43.5 19.1781 43.2375C18.6251 42.9305 18.0288 42.7092 17.4094 42.5813L15.4687 42.1313C15.0123 42.0441 14.581 41.8562 14.2063 41.5812C14.0637 41.4713 13.9487 41.3296 13.8706 41.1673C13.7925 41.0051 13.7533 40.8269 13.7562 40.6469C13.7562 40.1594 13.949 39.7594 14.3344 39.4469C14.726 39.1302 15.2594 38.9719 15.9344 38.9719C16.3802 38.9719 16.7656 39.0427 17.0906 39.1844C17.3914 39.3034 17.6562 39.4983 17.8594 39.75C18.0517 39.982 18.1809 40.2597 18.2344 40.5562H20.5781C20.5378 39.9201 20.3214 39.3077 19.9531 38.7875C19.5593 38.2255 19.0189 37.7823 18.3906 37.5062C17.6237 37.1683 16.7909 37.006 15.9531 37.0312C15.0385 37.0312 14.2302 37.1875 13.5281 37.5C12.826 37.8104 12.2771 38.249 11.8813 38.8156C11.4854 39.3844 11.2875 40.05 11.2875 40.8125C11.2875 41.4417 11.4146 41.9875 11.6687 42.45C11.9271 42.9146 12.2937 43.2969 12.7688 43.5969C13.2437 43.8948 13.8052 44.1167 14.4531 44.2625L16.3844 44.7125C17.0302 44.8646 17.5125 45.0656 17.8312 45.3156C17.9864 45.4348 18.1105 45.5896 18.1932 45.767C18.2759 45.9443 18.3147 46.1389 18.3062 46.3344C18.3133 46.6566 18.2205 46.9732 18.0406 47.2406C17.8393 47.5149 17.5624 47.7244 17.2437 47.8438C16.8958 47.9896 16.4656 48.0625 15.9531 48.0625C15.5885 48.0625 15.2552 48.0208 14.9531 47.9375C14.6761 47.8631 14.4139 47.7415 14.1781 47.5781C13.9703 47.4432 13.7924 47.2671 13.6554 47.0607C13.5183 46.8543 13.425 46.622 13.3813 46.3781H10.9906ZM2.51875 42.7906C2.51875 42.0135 2.625 41.3542 2.8375 40.8125C3.02319 40.3134 3.35135 39.8799 3.78125 39.5656C4.21843 39.2698 4.73804 39.1199 5.26562 39.1375C5.73438 39.1375 6.14896 39.2385 6.50937 39.4406C6.86155 39.6288 7.15551 39.9098 7.35938 40.2531C7.57718 40.6146 7.70573 41.0227 7.73437 41.4437H10.125V41.2188C10.1043 40.6431 9.96411 40.0781 9.71342 39.5595C9.46273 39.0409 9.10698 38.5801 8.66875 38.2062C8.22176 37.823 7.70201 37.5339 7.14063 37.3563C6.53138 37.1475 5.89082 37.045 5.24688 37.0531C4.13438 37.0531 3.18542 37.2854 2.4 37.75C1.61875 38.2125 1.02292 38.8708 0.6125 39.725C0.20625 40.5792 0.00208333 41.599 0 42.7844V44.3406C0 45.524 0.201042 46.5406 0.603125 47.3906C1.01354 48.2385 1.60938 48.8906 2.39062 49.3469C3.17188 49.799 4.12396 50.025 5.24688 50.025C6.16146 50.025 6.97917 49.8542 7.7 49.5125C8.42083 49.1708 8.99375 48.6979 9.41875 48.0938C9.84987 47.4732 10.0949 46.7425 10.125 45.9875V45.75H7.7375C7.70791 46.1523 7.58139 46.5415 7.36875 46.8844C7.16049 47.2162 6.86693 47.486 6.51875 47.6656C6.12755 47.8515 5.6987 47.9446 5.26562 47.9375C4.73778 47.9515 4.21772 47.8079 3.77188 47.525C3.34353 47.2207 3.0177 46.7935 2.8375 46.3C2.60908 45.6727 2.50095 45.008 2.51875 44.3406V42.7906ZM28.2656 49.7844H25.2875L21.1063 37.2875H23.9719L26.7719 47.0938H26.8906L29.6656 37.2875H32.4125L28.2656 49.7844Z" fill="#696F8C"/>
</g>
<defs>
<clipPath id="clip0_241_30046">
<rect width="50" height="50" fill="white"/>
</clipPath>
</defs>
</svg>
