<svg width="20" height="20" viewBox="0 0 20 20" fill="none" xmlns="http://www.w3.org/2000/svg">
<path d="M2.5 1.66669V0.916687C2.30109 0.916687 2.11032 0.995705 1.96967 1.13636C1.82902 1.27701 1.75 1.46777 1.75 1.66669L2.5 1.66669ZM2.5 18.3334L1.75 18.3334L1.75 19.5469L2.83541 19.0042L2.5 18.3334ZM15.8333 18.3334L15.4979 19.0042L16.5833 19.5469V18.3334H15.8333ZM9.16667 15L9.50208 14.3292L9.16667 14.1615L8.83126 14.3292L9.16667 15ZM1.75 1.66669L1.75 18.3334L3.25 18.3334L3.25 1.66669L1.75 1.66669ZM16.1687 17.6625L9.50208 14.3292L8.83126 15.6708L15.4979 19.0042L16.1687 17.6625ZM2.83541 19.0042L9.50208 15.6708L8.83126 14.3292L2.16459 17.6625L2.83541 19.0042ZM2.5 2.41669H9.16667V0.916687H2.5V2.41669ZM15.0833 9.16669V18.3334H16.5833V9.16669H15.0833Z" fill="#696F8C"/>
<path d="M10.8333 5L17.5 5" stroke="#696F8C" stroke-width="1.5" stroke-linejoin="round"/>
</svg>
