<svg width="24" height="24" viewBox="0 0 24 24" fill="none" xmlns="http://www.w3.org/2000/svg">
<path d="M16 10L21 12L21 22" stroke="#696F8C" stroke-width="1.5"/>
<path d="M7 9L12 9M7 13L12 13" stroke="#696F8C" stroke-width="1.5" stroke-linejoin="round"/>
<path d="M12 22V17H7L7 22" stroke="#696F8C" stroke-width="1.5" stroke-linejoin="round"/>
<path d="M1 22H23" stroke="#696F8C" stroke-width="1.5" stroke-linejoin="round"/>
<path d="M3 2L3.18661 1.27359C2.9621 1.21591 2.72353 1.26529 2.54036 1.40735C2.35719 1.54942 2.25 1.7682 2.25 2L3 2ZM16 5.33964H16.75V4.75796L16.1866 4.61323L16 5.33964ZM3.75 22L3.75 2L2.25 2L2.25 22H3.75ZM2.81339 2.72641L15.8134 6.06605L16.1866 4.61323L3.18661 1.27359L2.81339 2.72641ZM15.25 5.33964L15.25 22H16.75L16.75 5.33964H15.25Z" fill="#696F8C"/>
</svg>
