<svg width="30" height="31" viewBox="0 0 30 31" fill="none" xmlns="http://www.w3.org/2000/svg">
<path d="M3.75 13H26.25" stroke="#2E1A53" stroke-width="2" stroke-linejoin="round"/>
<path d="M18.75 8L21.25 8" stroke="#2E1A53" stroke-width="2" stroke-linecap="round" stroke-linejoin="round"/>
<path d="M26.25 16.75V14.25C26.25 8.9467 26.25 6.29505 24.6025 4.64752C22.955 3 20.3033 3 15 3C9.6967 3 7.04505 3 5.39752 4.64752C3.75 6.29505 3.75 8.9467 3.75 14.25V16.75C3.75 22.0533 3.75 24.705 5.39752 26.3525C7.04505 28 9.6967 28 15 28C20.3033 28 22.955 28 24.6025 26.3525C26.25 24.705 26.25 22.0533 26.25 16.75Z" stroke="#2E1A53" stroke-width="2"/>
<path d="M8.75 18H9.40789M14.6711 18H15.3289M20.5921 18H21.25" stroke="#2E1A53" stroke-width="2" stroke-linecap="round" stroke-linejoin="round"/>
<path d="M8.75 23H9.40789M14.6711 23H15.3289M20.5921 23H21.25" stroke="#2E1A53" stroke-width="2" stroke-linecap="round" stroke-linejoin="round"/>
</svg>
