<svg width="20" height="20" viewBox="0 0 20 20" fill="none" xmlns="http://www.w3.org/2000/svg">
<path d="M15 1.66699V3.33366M5 1.66699V3.33366" stroke="#6E7281" stroke-width="1.25" stroke-linecap="round" stroke-linejoin="round"/>
<path d="M2.08203 10.2027C2.08203 6.57162 2.08203 4.75607 3.12546 3.62803C4.1689 2.5 5.84827 2.5 9.20703 2.5H10.7904C14.1491 2.5 15.8285 2.5 16.8719 3.62803C17.9154 4.75607 17.9154 6.57162 17.9154 10.2027V10.6307C17.9154 14.2617 17.9154 16.0773 16.8719 17.2053C15.8285 18.3333 14.1491 18.3333 10.7904 18.3333H9.20703C5.84827 18.3333 4.1689 18.3333 3.12546 17.2053C2.08203 16.0773 2.08203 14.2617 2.08203 10.6307V10.2027Z" stroke="#6E7281" stroke-width="1.25" stroke-linecap="round" stroke-linejoin="round"/>
<path d="M2.5 6.66699H17.5" stroke="#6E7281" stroke-width="1.25" stroke-linecap="round" stroke-linejoin="round"/>
</svg>
