<svg width="20" height="20" viewBox="0 0 20 20" fill="none" xmlns="http://www.w3.org/2000/svg">
<g clip-path="url(#clip0_54_3717)">
<path d="M18.2597 6.30934L18.9949 6.4577L18.9949 6.45745L18.2597 6.30934ZM13.333 6.66663L12.6625 6.33053L12.4109 6.83245L12.8216 7.21526L13.333 6.66663ZM15.8393 1.66663L16.3131 1.08517C16.1367 0.941457 15.9046 0.88559 15.6821 0.933297C15.4596 0.981004 15.2708 1.12712 15.1689 1.33053L15.8393 1.66663ZM6.30922 18.2601L6.45733 18.9953L6.45758 18.9953L6.30922 18.2601ZM6.6665 13.3334L7.21514 12.822L6.83232 12.4113L6.33041 12.6629L6.6665 13.3334ZM1.6665 15.8398L1.33041 15.1693C1.127 15.2713 0.980882 15.4601 0.933175 15.6825C0.885468 15.905 0.941335 16.1371 1.08505 16.3135L1.6665 15.8398ZM17.5245 6.16098C17.3099 7.22417 16.9563 8.27284 16.2071 9.57872L17.5082 10.3252C18.3396 8.87598 18.7492 7.67494 18.9949 6.4577L17.5245 6.16098ZM17.369 9.40332L13.8443 6.11799L12.8216 7.21526L16.3463 10.5006L17.369 9.40332ZM14.0034 7.00272L16.5098 2.00272L15.1689 1.33053L12.6625 6.33053L14.0034 7.00272ZM15.3656 2.24808C16.6918 3.32854 17.8579 4.50578 17.5245 6.16123L18.9949 6.45745C19.5247 3.82763 17.5672 2.10693 16.3131 1.08517L15.3656 2.24808ZM6.45758 18.9953C7.67482 18.7496 8.87586 18.3401 10.3251 17.5086L9.5786 16.2075C8.27272 16.9567 7.22405 17.3104 6.16086 17.5249L6.45758 18.9953ZM10.5005 16.3467L7.21514 12.822L6.11787 13.8448L9.4032 17.3694L10.5005 16.3467ZM6.33041 12.6629L1.33041 15.1693L2.0026 16.5103L7.0026 14.0039L6.33041 12.6629ZM1.08505 16.3135C2.10681 17.5676 3.8275 19.5251 6.45733 18.9953L6.16111 17.5249C4.50566 17.8584 3.32842 16.6922 2.24796 15.3661L1.08505 16.3135ZM10.3251 17.5086C11.7819 16.6728 13.1599 15.6024 14.3808 14.3807L13.3197 13.3204C12.1861 14.4549 10.9127 15.4421 9.5786 16.2075L10.3251 17.5086ZM16.2071 9.57872C15.7301 10.41 15.1668 11.2184 14.5347 11.9845L15.6917 12.9392C16.3745 12.1116 16.9868 11.234 17.5082 10.3252L16.2071 9.57872Z" fill="#696F8C"/>
<path d="M1.6665 1.66669L18.3332 18.3334" stroke="#696F8C" stroke-width="1.5"/>
</g>
<defs>
<clipPath id="clip0_54_3717">
<rect width="20" height="20" fill="white"/>
</clipPath>
</defs>
</svg>
