<svg width="20" height="20" viewBox="0 0 20 20" fill="none" xmlns="http://www.w3.org/2000/svg">
<g clip-path="url(#clip0_856_3294)">
<path d="M1.73996 6.30922L1.00473 6.45733L1.00478 6.45758L1.73996 6.30922ZM6.66669 6.6665L7.17806 7.21514L7.58876 6.83232L7.33716 6.33041L6.66669 6.6665ZM4.16029 1.6665L4.83077 1.33041C4.72881 1.127 4.54002 0.980882 4.31755 0.933175C4.09507 0.885468 3.86297 0.941335 3.68657 1.08505L4.16029 1.6665ZM6.14941 13.8504L6.67994 13.3203L6.67955 13.3199L6.14941 13.8504ZM13.6904 18.26L13.5421 18.9952L13.5423 18.9952L13.6904 18.26ZM13.3331 13.3333L13.6692 12.6628L13.1673 12.4112L12.7845 12.8219L13.3331 13.3333ZM18.3331 15.8397L18.9146 16.3134C19.0583 16.137 19.1142 15.9049 19.0665 15.6824C19.0188 15.4599 18.8726 15.2711 18.6692 15.1692L18.3331 15.8397ZM1.00478 6.45758C1.25042 7.67482 1.66002 8.87586 2.49147 10.3251L3.79254 9.5786C3.04332 8.27272 2.6897 7.22405 2.47514 6.16086L1.00478 6.45758ZM3.65338 10.5005L7.17806 7.21514L6.15531 6.11787L2.63063 9.4032L3.65338 10.5005ZM7.33716 6.33041L4.83077 1.33041L3.48982 2.0026L5.99621 7.0026L7.33716 6.33041ZM3.68657 1.08505C2.43244 2.10681 0.474956 3.8275 1.00473 6.45733L2.47519 6.16111C2.1417 4.50566 3.30783 3.32842 4.63401 2.24796L3.68657 1.08505ZM2.49147 10.3251C3.32728 11.7819 4.39753 13.1601 5.61928 14.381L6.67955 13.3199C5.54518 12.1864 4.55796 10.9127 3.79254 9.5786L2.49147 10.3251ZM13.8388 17.5248C12.7756 17.3103 11.7269 16.9566 10.421 16.2074L9.67458 17.5085C11.1238 18.3399 12.3248 18.7495 13.5421 18.9952L13.8388 17.5248ZM10.5964 17.3693L13.8818 13.8446L12.7845 12.8219L9.49918 16.3466L10.5964 17.3693ZM12.997 14.0037L17.997 16.5101L18.6692 15.1692L13.6692 12.6628L12.997 14.0037ZM17.7517 15.3659C16.6712 16.6921 15.494 17.8582 13.8385 17.5248L13.5423 18.9952C16.1721 19.525 17.8928 17.5675 18.9146 16.3134L17.7517 15.3659ZM10.421 16.2074C9.08696 15.442 7.81353 14.4547 6.67994 13.3203L5.61889 14.3806C6.8397 15.6023 8.21771 16.6726 9.67458 17.5085L10.421 16.2074Z" fill="#696F8C"/>
<path d="M17.5 5L10.8334 5M17.5 5L15 7.5M17.5 5L15 2.5" stroke="#696F8C" stroke-width="1.5"/>
</g>
<defs>
<clipPath id="clip0_856_3294">
<rect width="20" height="20" fill="white"/>
</clipPath>
</defs>
</svg>
