<svg width="30" height="31" viewBox="0 0 30 31" fill="none" xmlns="http://www.w3.org/2000/svg">
<path d="M4.72203 15.4279C3.537 13.3616 2.96481 11.6743 2.6198 9.96402C2.10953 7.43447 3.27726 4.96351 5.21173 3.38684C6.02931 2.72048 6.96654 2.94815 7.45 3.8155L8.54148 5.77364C9.40661 7.32571 9.83918 8.10174 9.75338 8.92449C9.66758 9.74724 9.08421 10.4173 7.91747 11.7575L4.72203 15.4279ZM4.72203 15.4279C7.12063 19.6103 10.8848 23.3766 15.0721 25.778M15.0721 25.778C17.1384 26.963 18.8257 27.5352 20.536 27.8802C23.0655 28.3905 25.5365 27.2227 27.1132 25.2883C27.7795 24.4707 27.5519 23.5335 26.6845 23.05L24.7264 21.9585C23.1743 21.0934 22.3983 20.6608 21.5755 20.7466C20.7528 20.8324 20.0827 21.4158 18.7425 22.5825L15.0721 25.778Z" stroke="#101438" stroke-width="2" stroke-linejoin="round"/>
</svg>
