<svg width="20" height="20" viewBox="0 0 20 20" fill="none" xmlns="http://www.w3.org/2000/svg">
<path d="M1.66797 6.98134C1.66797 6.68941 1.66797 6.54345 1.68015 6.4205C1.79764 5.23472 2.73569 4.29666 3.92148 4.17917C4.04442 4.16699 4.19827 4.16699 4.50596 4.16699C4.62451 4.16699 4.68379 4.16699 4.73412 4.16394C5.37681 4.12502 5.9396 3.71939 6.17976 3.12199C6.19856 3.07521 6.21614 3.02247 6.2513 2.91699C6.28646 2.81152 6.30404 2.75878 6.32285 2.71199C6.56301 2.11459 7.12579 1.70896 7.76848 1.67004C7.81881 1.66699 7.8744 1.66699 7.98558 1.66699H12.017C12.1282 1.66699 12.1838 1.66699 12.2341 1.67004C12.8768 1.70896 13.4396 2.11459 13.6798 2.71199C13.6986 2.75878 13.7161 2.81152 13.7513 2.91699C13.7865 3.02247 13.804 3.07521 13.8228 3.12199C14.063 3.71939 14.6258 4.12502 15.2685 4.16394C15.3188 4.16699 15.3781 4.16699 15.4966 4.16699C15.8043 4.16699 15.9582 4.16699 16.0811 4.17917C17.2669 4.29666 18.205 5.23472 18.3225 6.4205C18.3346 6.54345 18.3346 6.68941 18.3346 6.98134V13.5003C18.3346 14.9005 18.3346 15.6005 18.0622 16.1353C17.8225 16.6057 17.44 16.9882 16.9696 17.2278C16.4348 17.5003 15.7348 17.5003 14.3346 17.5003H5.66797C4.26784 17.5003 3.56777 17.5003 3.03299 17.2278C2.56259 16.9882 2.18014 16.6057 1.94045 16.1353C1.66797 15.6005 1.66797 14.9005 1.66797 13.5003V6.98134Z" stroke="#02021D" stroke-width="2" stroke-linecap="round" stroke-linejoin="round"/>
<path d="M10.0013 13.7503C11.8423 13.7503 13.3346 12.2579 13.3346 10.417C13.3346 8.57604 11.8423 7.08366 10.0013 7.08366C8.16035 7.08366 6.66797 8.57604 6.66797 10.417C6.66797 12.2579 8.16035 13.7503 10.0013 13.7503Z" stroke="#02021D" stroke-width="2" stroke-linecap="round" stroke-linejoin="round"/>
</svg>
