<svg width="20" height="20" viewBox="0 0 20 20" fill="none" xmlns="http://www.w3.org/2000/svg">
<g clip-path="url(#clip0_93_94245)">
<path d="M11.6667 15C15.3486 15 18.3333 12.0152 18.3333 8.33332C18.3333 4.65142 15.3486 1.66666 11.6667 1.66666C7.98477 1.66666 5 4.65142 5 8.33332C5 12.0152 7.98477 15 11.6667 15Z" stroke="#696F8C" stroke-width="1.5" stroke-linecap="round" stroke-linejoin="round"/>
<path d="M2.63031 9.16666C2.02086 10.098 1.6665 11.2113 1.6665 12.4074C1.6665 15.6802 4.31965 18.3333 7.59247 18.3333C8.78855 18.3333 9.90187 17.979 10.8332 17.3695" stroke="#696F8C" stroke-width="1.5" stroke-linejoin="round"/>
<path d="M11.6667 5.83331C10.7462 5.83331 10 6.39296 10 7.08331C10 7.77367 10.7462 8.33331 11.6667 8.33331C12.5871 8.33331 13.3333 8.89296 13.3333 9.58331C13.3333 10.2737 12.5871 10.8333 11.6667 10.8333M11.6667 5.83331C12.3923 5.83331 13.0097 6.18115 13.2385 6.66665M11.6667 5.83331V4.58331M11.6667 10.8333C10.941 10.8333 10.3236 10.4855 10.0948 9.99998M11.6667 10.8333V12.0833" stroke="#696F8C" stroke-width="1.5" stroke-linejoin="round"/>
</g>
<defs>
<clipPath id="clip0_93_94245">
<rect width="20" height="20" fill="white"/>
</clipPath>
</defs>
</svg>
