<svg width="16" height="16" viewBox="0 0 16 16" fill="none" xmlns="http://www.w3.org/2000/svg">
<path d="M11.9987 3.99967C11.9674 2.96404 11.8518 2.34633 11.4238 1.91879C10.8374 1.33301 9.89356 1.33301 8.0059 1.33301H5.33636C3.4487 1.33301 2.50487 1.33301 1.91845 1.91879C1.33203 2.50458 1.33203 3.44739 1.33203 5.33301V10.6663C1.33203 12.5519 1.33203 13.4947 1.91845 14.0805C2.50487 14.6663 3.4487 14.6663 5.33636 14.6663H8.0059C9.89356 14.6663 10.8374 14.6663 11.4238 14.0805C11.8518 13.653 11.9674 13.0353 11.9987 11.9997" stroke="black" stroke-width="1.5" stroke-linecap="round" stroke-linejoin="round"/>
<path d="M13.4946 7.82761L14.2793 7.04287C14.4596 6.86261 14.5497 6.77247 14.5979 6.67527C14.6896 6.49023 14.6896 6.27303 14.5979 6.08802C14.5497 5.99078 14.4596 5.90064 14.2793 5.72037C14.099 5.54009 14.0089 5.44995 13.9117 5.40177C13.7267 5.31009 13.5095 5.31009 13.3244 5.40177C13.2272 5.44995 13.1371 5.54009 12.9568 5.72037L12.1721 6.50507M13.4946 7.82761L9.9838 11.3384L8 11.9997L8.66127 10.0159L12.1721 6.50507M13.4946 7.82761L12.1721 6.50507" stroke="black" stroke-width="1.5" stroke-linecap="round" stroke-linejoin="round"/>
<path d="M3.33203 12.6667H3.9987L4.83203 11L5.66536 12.6667H6.33203" stroke="black" stroke-width="1.5" stroke-linecap="round" stroke-linejoin="round"/>
<path d="M4 4H9.33333" stroke="black" stroke-width="1.5" stroke-linecap="round" stroke-linejoin="round"/>
<path d="M4 6.66699H8" stroke="black" stroke-width="1.5" stroke-linecap="round" stroke-linejoin="round"/>
</svg>
