<svg width="18" height="20" viewBox="0 0 18 20" fill="none" xmlns="http://www.w3.org/2000/svg">
<path d="M15.25 4.58398L14.7336 12.9382C14.6016 15.0727 14.5356 16.1399 14.0006 16.9072C13.7361 17.2866 13.3955 17.6067 13.0006 17.8473C12.2018 18.334 11.1325 18.334 8.99395 18.334C6.8526 18.334 5.78192 18.334 4.98254 17.8464C4.58733 17.6054 4.24666 17.2847 3.98224 16.9047C3.4474 16.1361 3.38288 15.0674 3.25384 12.9299L2.75 4.58398" stroke="#696F8C" stroke-width="1.5" stroke-linecap="round"/>
<path d="M1.5 4.58366H16.5M12.3798 4.58366L11.8109 3.4101C11.433 2.63054 11.244 2.24076 10.9181 1.99766C10.8458 1.94374 10.7692 1.89578 10.6892 1.85424C10.3283 1.66699 9.8951 1.66699 9.02877 1.66699C8.14069 1.66699 7.69665 1.66699 7.32974 1.86209C7.24842 1.90533 7.17082 1.95524 7.09774 2.0113C6.76803 2.26424 6.58386 2.66829 6.2155 3.47637L5.71077 4.58366" stroke="#696F8C" stroke-width="1.5" stroke-linecap="round"/>
</svg>
