<svg width="18" height="18" viewBox="0 0 18 18" fill="none" xmlns="http://www.w3.org/2000/svg">
<path d="M1.5 2.25L1.5 1.5C1.08579 1.5 0.75 1.83579 0.75 2.25H1.5ZM16.4999 2.25L17.2499 2.25C17.2499 1.83579 16.9141 1.5 16.4999 1.5V2.25ZM1.5 6H0.75L0.75 6.75H1.5L1.5 6ZM16.4999 6V6.75H17.2499V6H16.4999ZM1.5 3L16.4999 3V1.5L1.5 1.5L1.5 3ZM1.5 6.75L16.4999 6.75V5.25L1.5 5.25L1.5 6.75ZM2.25 6L2.25 2.25H0.75L0.75 6H2.25ZM15.7499 2.25L15.7499 6H17.2499V2.25L15.7499 2.25Z" fill="#696F8C"/>
<path d="M2.25 6L2.25 15.75L15.75 15.75L15.75 6" stroke="#696F8C" stroke-width="1.5" stroke-linecap="round" stroke-linejoin="round"/>
<path d="M7.125 8.25L10.875 8.25" stroke="#696F8C" stroke-width="1.5"/>
</svg>
