<svg width="18" height="6" viewBox="0 0 18 6" fill="none" xmlns="http://www.w3.org/2000/svg">
<path fill-rule="evenodd" clip-rule="evenodd" d="M15.2498 3.41683C15.0197 3.41683 14.8332 3.23028 14.8332 3.00016C14.8332 2.77004 15.0197 2.5835 15.2498 2.5835C15.48 2.5835 15.6665 2.77004 15.6665 3.00016C15.6665 3.23028 15.48 3.41683 15.2498 3.41683ZM13.1665 3.00016C13.1665 4.15076 14.0992 5.0835 15.2498 5.0835C16.4004 5.0835 17.3332 4.15076 17.3332 3.00016C17.3332 1.84957 16.4004 0.91683 15.2498 0.91683C14.0992 0.91683 13.1665 1.84957 13.1665 3.00016Z" fill="#696F8C"/>
<path fill-rule="evenodd" clip-rule="evenodd" d="M8.99984 3.41683C8.76972 3.41683 8.58317 3.23028 8.58317 3.00016C8.58317 2.77004 8.76972 2.5835 8.99984 2.5835C9.22996 2.5835 9.4165 2.77004 9.4165 3.00016C9.4165 3.23028 9.22996 3.41683 8.99984 3.41683ZM6.9165 3.00016C6.9165 4.15076 7.84924 5.0835 8.99984 5.0835C10.1504 5.0835 11.0832 4.15076 11.0832 3.00016C11.0832 1.84957 10.1504 0.91683 8.99984 0.91683C7.84924 0.91683 6.9165 1.84957 6.9165 3.00016Z" fill="#696F8C"/>
<path fill-rule="evenodd" clip-rule="evenodd" d="M2.74984 3.41683C2.51972 3.41683 2.33317 3.23028 2.33317 3.00016C2.33317 2.77004 2.51972 2.5835 2.74984 2.5835C2.97996 2.5835 3.1665 2.77004 3.1665 3.00016C3.1665 3.23028 2.97996 3.41683 2.74984 3.41683ZM0.666504 3.00016C0.666504 4.15076 1.59924 5.0835 2.74984 5.0835C3.90043 5.0835 4.83317 4.15076 4.83317 3.00016C4.83317 1.84957 3.90043 0.91683 2.74984 0.91683C1.59924 0.91683 0.666504 1.84957 0.666504 3.00016Z" fill="#696F8C"/>
</svg>
