<svg width="16" height="16" viewBox="0 0 16 16" fill="none" xmlns="http://www.w3.org/2000/svg">
<g clip-path="url(#clip0_1_6208)">
<path d="M5.33337 14.6666V15.4166H5.64403L5.8637 15.1969L5.33337 14.6666ZM14.6667 5.33325L15.197 5.86358C15.3377 5.72293 15.4167 5.53216 15.4167 5.33325C15.4167 5.13434 15.3377 4.94357 15.197 4.80292L14.6667 5.33325ZM1.33398 10.6666L0.803637 10.1363L0.583984 10.3559V10.6666H1.33398ZM10.6667 1.33325L11.197 0.802922C11.0564 0.662267 10.8656 0.583249 10.6667 0.583252C10.4678 0.583255 10.277 0.662279 10.1364 0.802939L10.6667 1.33325ZM1.33398 14.6666H0.583984V15.4166H1.33398V14.6666ZM5.8637 15.1969L15.197 5.86358L14.1364 4.80292L4.80304 14.1363L5.8637 15.1969ZM1.86433 11.1969L11.1971 1.86356L10.1364 0.802939L0.803637 10.1363L1.86433 11.1969ZM10.1364 1.86358L14.1364 5.86358L15.197 4.80292L11.197 0.802922L10.1364 1.86358ZM5.33337 13.9166H1.33398V15.4166H5.33337V13.9166ZM2.08398 14.6666V10.6666H0.583984V14.6666H2.08398Z" fill="#696F8C"/>
<path d="M8.00049 4L12.0005 8" stroke="#696F8C" stroke-width="1.5" stroke-linejoin="round"/>
<path d="M8.6665 14.6665L14.6665 14.6665" stroke="#696F8C" stroke-width="1.5" stroke-linejoin="round"/>
</g>
<defs>
<clipPath id="clip0_1_6208">
<rect width="16" height="16" fill="white"/>
</clipPath>
</defs>
</svg>
