<svg width="20" height="20" viewBox="0 0 20 20" fill="none" xmlns="http://www.w3.org/2000/svg">
<g clip-path="url(#clip0_54_11632)">
<path d="M6.66671 18.3334V19.0834H6.97737L7.19704 18.8637L6.66671 18.3334ZM18.3334 6.66669L18.8637 7.19702C19.1566 6.90412 19.1566 6.42925 18.8637 6.13636L18.3334 6.66669ZM1.66748 13.3334L1.13713 12.803L0.91748 13.0227V13.3334H1.66748ZM13.3334 1.66669L13.8637 1.13636C13.7231 0.995702 13.5323 0.916684 13.3334 0.916687C13.1344 0.91669 12.9437 0.995714 12.803 1.13637L13.3334 1.66669ZM1.66748 18.3334H0.91748V19.0834H1.66748V18.3334ZM7.19704 18.8637L18.8637 7.19702L17.803 6.13636L6.13638 17.803L7.19704 18.8637ZM2.19783 13.8637L13.8637 2.197L12.803 1.13637L1.13713 12.803L2.19783 13.8637ZM12.803 2.19702L17.803 7.19702L18.8637 6.13636L13.8637 1.13636L12.803 2.19702ZM6.66671 17.5834H1.66748V19.0834H6.66671V17.5834ZM2.41748 18.3334V13.3334H0.91748V18.3334H2.41748Z" fill="#696F8C"/>
<path d="M10.0009 5L15.0009 10" stroke="#696F8C" stroke-width="1.5" stroke-linejoin="round"/>
<path d="M10.8334 18.3333L18.3334 18.3333" stroke="#696F8C" stroke-width="1.5" stroke-linejoin="round"/>
</g>
<defs>
<clipPath id="clip0_54_11632">
<rect width="20" height="20" fill="white"/>
</clipPath>
</defs>
</svg>
