<svg width="16" height="16" viewBox="0 0 16 16" fill="none" xmlns="http://www.w3.org/2000/svg">
<g clip-path="url(#clip0_299_20388)">
<path d="M5.33331 14.6668V15.2668H5.58184L5.75757 15.0911L5.33331 14.6668ZM14.6666 5.3335L15.0909 5.75776C15.2034 5.64524 15.2666 5.49263 15.2666 5.3335C15.2666 5.17437 15.2034 5.02175 15.0909 4.90923L14.6666 5.3335ZM1.33392 10.6668L0.909645 10.2426L0.733923 10.4183V10.6668H1.33392ZM10.6666 1.3335L11.0909 0.909232C10.9784 0.796708 10.8258 0.733493 10.6666 0.733496C10.5075 0.733499 10.3549 0.796718 10.2424 0.909246L10.6666 1.3335ZM1.33392 14.6668H0.733923V15.2668H1.33392V14.6668ZM5.75757 15.0911L15.0909 5.75776L14.2424 4.90923L4.90904 14.2426L5.75757 15.0911ZM1.7582 11.0911L11.0909 1.75775L10.2424 0.909246L0.909645 10.2426L1.7582 11.0911ZM10.2424 1.75776L14.2424 5.75776L15.0909 4.90923L11.0909 0.909232L10.2424 1.75776ZM5.33331 14.0668H1.33392V15.2668H5.33331V14.0668ZM1.93392 14.6668V10.6668H0.733923V14.6668H1.93392Z" fill="#696F8C"/>
<path d="M8.00061 4L12.0006 8" stroke="#696F8C" stroke-width="1.2" stroke-linejoin="round"/>
<path d="M8.66663 14.667L14.6666 14.667" stroke="#696F8C" stroke-width="1.2" stroke-linejoin="round"/>
</g>
<defs>
<clipPath id="clip0_299_20388">
<rect width="16" height="16" fill="white"/>
</clipPath>
</defs>
</svg>
