<svg width="16" height="20" viewBox="0 0 16 20" fill="none" xmlns="http://www.w3.org/2000/svg">
<path d="M15.0832 18.3333V19.0833C15.4974 19.0833 15.8332 18.7475 15.8332 18.3333H15.0832ZM0.916504 18.3333H0.166504C0.166504 18.7475 0.50229 19.0833 0.916504 19.0833L0.916504 18.3333ZM15.0832 1.66666H15.8332C15.8332 1.25244 15.4974 0.916656 15.0832 0.916656V1.66666ZM6.74984 1.66666V0.916656H6.43918L6.21951 1.13633L6.74984 1.66666ZM0.916504 7.49999L0.386174 6.96966L0.166504 7.18933V7.49999H0.916504ZM6.74984 7.49999V8.24999H7.49984V7.49999H6.74984ZM15.0832 17.5833H0.916504V19.0833H15.0832V17.5833ZM14.3332 1.66666V18.3333H15.8332V1.66666H14.3332ZM15.0832 0.916656H6.74984V2.41666H15.0832V0.916656ZM0.166504 7.49999V18.3333H1.6665V7.49999H0.166504ZM6.21951 1.13633L0.386174 6.96966L1.44683 8.03032L7.28017 2.19699L6.21951 1.13633ZM5.99984 1.66666V7.49999H7.49984V1.66666H5.99984ZM6.74984 6.74999H0.916504V8.24999H6.74984V6.74999Z" fill="#696F8C"/>
<path d="M11.3332 14.1667H4.6665" stroke="#696F8C" stroke-width="1.5" stroke-linejoin="round"/>
<path d="M11.3333 10.8333H8" stroke="#696F8C" stroke-width="1.5" stroke-linejoin="round"/>
</svg>
