<svg width="20" height="17" viewBox="0 0 20 17" fill="none" xmlns="http://www.w3.org/2000/svg">
<path d="M15 10.25V16.9167M18.3333 13.5833L11.6667 13.5833" stroke="#696F8C" stroke-width="1.5" stroke-linejoin="round"/>
<path d="M1.66666 16.0835H0.916656C0.916656 16.4977 1.25244 16.8335 1.66666 16.8335L1.66666 16.0835ZM18.3333 4.41682H19.0833C19.0833 4.00261 18.7475 3.66682 18.3333 3.66682V4.41682ZM7.49999 1.0835L8.09999 0.633496L7.87499 0.333496L7.49999 0.333496L7.49999 1.0835ZM1.66666 1.08349L1.66666 0.33349C1.46774 0.33349 1.27698 0.412507 1.13633 0.553159C0.995674 0.693812 0.916656 0.884577 0.916656 1.08349H1.66666ZM9.99999 15.3335H1.66666V16.8335H9.99999V15.3335ZM5.83332 5.16682H18.3333V3.66682H5.83332V5.16682ZM6.89999 1.5335L9.39999 4.86682L10.6 3.96682L8.09999 0.633496L6.89999 1.5335ZM2.41666 16.0835V1.08349H0.916656V16.0835H2.41666ZM7.49999 0.333496L1.66666 0.33349L1.66666 1.83349L7.49999 1.8335L7.49999 0.333496ZM17.5833 4.41682V9.00016H19.0833V4.41682H17.5833Z" fill="#696F8C"/>
</svg>
