<svg width="20" height="20" viewBox="0 0 20 20" fill="none" xmlns="http://www.w3.org/2000/svg">
<path d="M14.9998 11.25V17.9167M18.3332 14.5833L11.6665 14.5833" stroke="#696F8C" stroke-width="1.5" stroke-linejoin="round"/>
<path d="M1.6665 17.0833H0.916504C0.916504 17.4975 1.25229 17.8333 1.6665 17.8333L1.6665 17.0833ZM18.3332 5.41664H19.0832C19.0832 5.00243 18.7474 4.66664 18.3332 4.66664V5.41664ZM7.49984 2.08331L8.09984 1.63331L7.87484 1.33331L7.49984 1.33331L7.49984 2.08331ZM1.6665 2.08331L1.6665 1.33331C1.46759 1.33331 1.27683 1.41232 1.13617 1.55298C0.995522 1.69363 0.916504 1.88439 0.916504 2.08331H1.6665ZM9.99984 16.3333H1.6665V17.8333H9.99984V16.3333ZM5.83317 6.16664H18.3332V4.66664H5.83317V6.16664ZM6.89984 2.53331L9.39984 5.86664L10.5998 4.96664L8.09984 1.63331L6.89984 2.53331ZM2.4165 17.0833V2.08331H0.916504V17.0833H2.4165ZM7.49984 1.33331L1.6665 1.33331L1.6665 2.83331L7.49984 2.83331L7.49984 1.33331ZM17.5832 5.41664V9.99998H19.0832V5.41664H17.5832Z" fill="#696F8C"/>
</svg>
