<svg width="20" height="20" viewBox="0 0 20 20" fill="none" xmlns="http://www.w3.org/2000/svg">
<path d="M18.3333 17.5V18.25C18.7475 18.25 19.0833 17.9142 19.0833 17.5H18.3333ZM1.66666 17.5H0.916656C0.916656 17.9142 1.25244 18.25 1.66666 18.25L1.66666 17.5ZM18.3333 5.83333H19.0833C19.0833 5.41912 18.7475 5.08333 18.3333 5.08333V5.83333ZM7.49999 2.50001L8.09999 2.05001L7.87499 1.75001L7.49999 1.75001L7.49999 2.50001ZM1.66666 2.5L1.66666 1.75C1.46774 1.75 1.27698 1.82902 1.13633 1.96967C0.995674 2.11032 0.916656 2.30109 0.916656 2.5H1.66666ZM18.3333 16.75H1.66666V18.25H18.3333V16.75ZM5.83332 6.58333H18.3333V5.08333H5.83332V6.58333ZM6.89999 2.95001L9.39999 6.28333L10.6 5.38333L8.09999 2.05001L6.89999 2.95001ZM2.41666 17.5V2.5H0.916656V17.5H2.41666ZM7.49999 1.75001L1.66666 1.75L1.66666 3.25L7.49999 3.25001L7.49999 1.75001ZM17.5833 5.83333V17.5H19.0833V5.83333H17.5833Z" fill="#696F8C"/>
</svg>
