<svg width="28" height="28" viewBox="0 0 28 28" fill="none" xmlns="http://www.w3.org/2000/svg">
<circle cx="14" cy="14" r="12" fill="white"/>
<path d="M25.4384 11.7151H24.4987V11.6667H13.9987V16.3334H20.5921C19.6302 19.05 17.0454 21 13.9987 21C10.1329 21 6.9987 17.8658 6.9987 14C6.9987 10.1343 10.1329 7.00004 13.9987 7.00004C15.7831 7.00004 17.4065 7.67321 18.6426 8.77279L21.9425 5.47287C19.8589 3.53096 17.0717 2.33337 13.9987 2.33337C7.55578 2.33337 2.33203 7.55712 2.33203 14C2.33203 20.443 7.55578 25.6667 13.9987 25.6667C20.4416 25.6667 25.6654 20.443 25.6654 14C25.6654 13.2178 25.5849 12.4542 25.4384 11.7151Z" fill="#FFDA40"/>
<path d="M3.67969 8.56979L7.51277 11.3809C8.54994 8.81304 11.0618 7.00004 14.0012 7.00004C15.7856 7.00004 17.409 7.67321 18.6451 8.77279L21.945 5.47287C19.8614 3.53096 17.0742 2.33337 14.0012 2.33337C9.52002 2.33337 5.63385 4.86329 3.67969 8.56979Z" fill="#FE7B1E"/>
<path d="M13.9995 25.6671C17.013 25.6671 19.7512 24.5138 21.8214 22.6384L18.2106 19.5829C16.9999 20.5036 15.5205 21.0016 13.9995 21.0004C10.965 21.0004 8.38845 19.0655 7.41778 16.3652L3.61328 19.2965C5.54411 23.0747 9.46528 25.6671 13.9995 25.6671Z" fill="#69D84F"/>
<path d="M25.4397 11.715H24.5V11.6666H14V16.3333H20.5934C20.1333 17.6262 19.3045 18.756 18.2093 19.583L18.2111 19.5819L21.8219 22.6374C21.5664 22.8695 25.6667 19.8333 25.6667 14C25.6667 13.2177 25.5862 12.4541 25.4397 11.715Z" fill="#3184FF"/>
</svg>
