<svg width="40" height="40" viewBox="0 0 40 40" fill="none" xmlns="http://www.w3.org/2000/svg">
<circle cx="20" cy="20" r="20" fill="#7741FB"/>
<path d="M25.8333 12.5H14.1667C13.2462 12.5 12.5 13.2462 12.5 14.1667V25.8333C12.5 26.7538 13.2462 27.5 14.1667 27.5H25.8333C26.7538 27.5 27.5 26.7538 27.5 25.8333V14.1667C27.5 13.2462 26.7538 12.5 25.8333 12.5Z" stroke="white" stroke-width="1.5" stroke-linecap="round" stroke-linejoin="round"/>
<path d="M17.082 18.3334C17.7724 18.3334 18.332 17.7737 18.332 17.0834C18.332 16.393 17.7724 15.8334 17.082 15.8334C16.3917 15.8334 15.832 16.393 15.832 17.0834C15.832 17.7737 16.3917 18.3334 17.082 18.3334Z" stroke="white" stroke-width="1.5" stroke-linecap="round" stroke-linejoin="round"/>
<path d="M27.5013 22.5L23.3346 18.3334L14.168 27.5" stroke="white" stroke-width="1.5" stroke-linecap="round" stroke-linejoin="round"/>
</svg>
