<svg width="20" height="20" viewBox="0 0 20 20" fill="none" xmlns="http://www.w3.org/2000/svg">
<path d="M14.5645 7.50922C14.5707 7.50919 14.5769 7.50917 14.5832 7.50917C16.6542 7.50917 18.3332 9.19118 18.3332 11.2661C18.3332 13.1998 16.8748 14.7924 14.9998 15M14.5645 7.50922C14.5769 7.37172 14.5832 7.23247 14.5832 7.09174C14.5832 4.55579 12.5311 2.5 9.99984 2.5C7.60254 2.5 5.63511 4.34389 5.43352 6.69326M14.5645 7.50922C14.4793 8.45632 14.107 9.3205 13.5355 10.0138M5.43352 6.69326C3.31982 6.89477 1.6665 8.67827 1.6665 10.8486C1.6665 12.8681 3.09797 14.5527 4.99984 14.9394M5.43352 6.69326C5.56505 6.68072 5.69836 6.67431 5.83317 6.67431C6.77136 6.67431 7.63712 6.98495 8.33358 7.50917" stroke="#696F8C" stroke-width="1.5" stroke-linejoin="round"/>
<path d="M10 17.5L10 10.8333M10 17.5L7.5 15M10 17.5L12.5 15" stroke="#696F8C" stroke-width="1.5"/>
</svg>
