<svg width="18" height="18" viewBox="0 0 18 18" fill="none" xmlns="http://www.w3.org/2000/svg">
<path fill-rule="evenodd" clip-rule="evenodd" d="M11.6726 7.5059L7.5059 11.6726L6.32739 10.4941L10.4941 6.32739L11.6726 7.5059Z" fill="#0B1234"/>
<path fill-rule="evenodd" clip-rule="evenodd" d="M8.41083 2.1975C10.452 0.156335 13.7614 0.156334 15.8025 2.1975C17.8437 4.23867 17.8437 7.54805 15.8025 9.58921L13.6279 11.7638L12.4494 10.5853L14.624 8.4107C16.0143 7.02041 16.0143 4.7663 14.624 3.37601C13.2337 1.98572 10.9796 1.98572 9.58934 3.37601L7.41472 5.55063L6.2362 4.37212L8.41083 2.1975ZM2.19762 8.4107L4.37224 6.23608L5.55075 7.41459L3.37613 9.58921C1.98584 10.9795 1.98584 13.2336 3.37613 14.6239C4.76643 16.0142 7.02053 16.0142 8.41083 14.6239L10.5854 12.4493L11.764 13.6278L9.58934 15.8024C7.54817 17.8436 4.23879 17.8436 2.19762 15.8024C0.156457 13.7613 0.156457 10.4519 2.19762 8.4107Z" fill="#0B1234"/>
</svg>
