<svg width="20" height="20" viewBox="0 0 20 20" fill="none" xmlns="http://www.w3.org/2000/svg">
<path fill-rule="evenodd" clip-rule="evenodd" d="M12.6726 8.50566L8.50593 12.6723L7.32742 11.4938L11.4941 7.32715L12.6726 8.50566Z" fill="#696F8C"/>
<path fill-rule="evenodd" clip-rule="evenodd" d="M9.41076 3.19738C11.4519 1.15621 14.7613 1.15621 16.8025 3.19738C18.8436 5.23854 18.8436 8.54793 16.8025 10.5891L14.6278 12.7637L13.4493 11.5852L15.624 9.41058C17.0143 8.02029 17.0143 5.76618 15.624 4.37589C14.2337 2.9856 11.9796 2.9856 10.5893 4.37589L8.41465 6.55051L7.23614 5.372L9.41076 3.19738ZM3.19755 9.41058L5.37217 7.23596L6.55069 8.41447L4.37606 10.5891C2.98577 11.9794 2.98577 14.2335 4.37606 15.6238C5.76636 17.0141 8.02047 17.0141 9.41076 15.6238L11.5854 13.4492L12.7639 14.6277L10.5893 16.8023C8.5481 18.8435 5.23872 18.8435 3.19755 16.8023C1.15639 14.7611 1.15639 11.4517 3.19755 9.41058Z" fill="#696F8C"/>
</svg>
