<svg width="16" height="16" viewBox="0 0 16 16" fill="none" xmlns="http://www.w3.org/2000/svg">
<path d="M9.66732 5.99998C9.66732 6.92045 8.92112 7.66665 8.00065 7.66665C7.08018 7.66665 6.33398 6.92045 6.33398 5.99998C6.33398 5.07951 7.08018 4.33331 8.00065 4.33331C8.92112 4.33331 9.66732 5.07951 9.66732 5.99998Z" stroke="#141B34"/>
<path d="M12.1475 11.3333C13.0771 12.659 13.5219 13.365 13.257 13.9332C13.2304 13.9902 13.1993 14.0452 13.1639 14.0978C12.7809 14.6666 11.791 14.6666 9.81121 14.6666H6.1875C4.20769 14.6666 3.21778 14.6666 2.83475 14.0978C2.79938 14.0452 2.76827 13.9902 2.74171 13.9332C2.47681 13.365 2.92152 12.659 3.8512 11.3333" stroke="#141B34" stroke-linecap="round" stroke-linejoin="round"/>
<path d="M8.83892 11.6624C8.61405 11.8789 8.31352 12 8.00078 12C7.68798 12 7.38745 11.8789 7.16258 11.6624C5.10352 9.66718 2.34411 7.43831 3.68979 4.20247C4.41738 2.45286 6.16394 1.33331 8.00078 1.33331C9.83758 1.33331 11.5841 2.45287 12.3117 4.20247C13.6557 7.43425 10.9031 9.67405 8.83892 11.6624Z" stroke="#141B34"/>
</svg>
