<svg width="28" height="28" viewBox="0 0 28 28" fill="none" xmlns="http://www.w3.org/2000/svg">
<path fill-rule="evenodd" clip-rule="evenodd" d="M2.7998 13.9996C2.7998 13.4197 3.26991 12.9496 3.8498 12.9496L13.3516 12.9496L10.7783 10.1618C10.3849 9.73569 10.4115 9.0714 10.8376 8.67806C11.2637 8.28473 11.928 8.3113 12.3213 8.73741L16.5213 13.2874C16.8926 13.6896 16.8926 14.3096 16.5213 14.7118L12.3213 19.2618C11.928 19.6879 11.2637 19.7145 10.8376 19.3212C10.4115 18.9278 10.3849 18.2635 10.7783 17.8374L13.3516 15.0496L3.8498 15.0496C3.26991 15.0496 2.7998 14.5795 2.7998 13.9996ZM13.9998 25.5496C13.9998 24.9697 14.4699 24.4996 15.0498 24.4996L21.3498 24.4996C22.3163 24.4996 23.0998 23.7161 23.0998 22.7496L23.0998 5.24961C23.0998 4.28311 22.3163 3.49961 21.3498 3.49961L15.0498 3.49961C14.4699 3.49961 13.9998 3.02951 13.9998 2.44961C13.9998 1.86971 14.4699 1.39961 15.0498 1.39961L21.3498 1.39961C23.4761 1.39961 25.1998 3.12331 25.1998 5.24961L25.1998 22.7496C25.1998 24.8759 23.4761 26.5996 21.3498 26.5996L15.0498 26.5996C14.4699 26.5996 13.9998 26.1295 13.9998 25.5496Z" fill="#696F8C"/>
</svg>
