<svg width="24" height="23" viewBox="0 0 24 23" fill="none" xmlns="http://www.w3.org/2000/svg">
<path d="M16 15.9997L21 11.2938M21 11.2938L16 6.58795M21 11.2938H9M12 15.9997C12 16.875 12 17.3126 11.8978 17.6717C11.6204 18.646 10.8117 19.4071 9.77646 19.6682C9.39496 19.7644 8.92997 19.7644 8 19.7644H7.5C6.10218 19.7644 5.40326 19.7644 4.85195 19.5495C4.11687 19.2629 3.53284 18.7133 3.22836 18.0214C3 17.5025 3 16.8447 3 15.5291V7.05854C3 5.74294 3 5.08514 3.22836 4.56625C3.53284 3.87441 4.11687 3.32474 4.85195 3.03817C5.40326 2.82324 6.10218 2.82324 7.5 2.82324H8C8.92997 2.82324 9.39496 2.82324 9.77646 2.91945C10.8117 3.18054 11.6204 3.94161 11.8978 4.91599C12 5.27505 12 5.71268 12 6.58795" stroke="#F63535" stroke-width="2" stroke-linecap="round" stroke-linejoin="round"/>
</svg>
