<svg width="26" height="22" viewBox="0 0 26 22" fill="none" xmlns="http://www.w3.org/2000/svg">
<path d="M22.7575 14.6757L23.1671 14.0475L23.1669 14.0474L22.7575 14.6757ZM18.6386 18.0003H17.8886V18.5113L18.3641 18.6983L18.6386 18.0003ZM24.572 20.3337L24.2975 21.0316C24.5156 21.1174 24.7613 21.0963 24.9616 20.9745C25.1619 20.8528 25.2937 20.6444 25.318 20.4113L24.572 20.3337ZM12.9999 12.167L12.9996 12.917L13.0001 12.917L12.9999 12.167ZM3.24239 14.6755L2.83293 14.0471L2.83272 14.0473L3.24239 14.6755ZM7.36129 18.0003L7.63574 18.6983L8.11129 18.5113V18.0003H7.36129ZM1.42784 20.3334L0.681872 20.411C0.706132 20.6442 0.837972 20.8525 1.03824 20.9743C1.23851 21.096 1.48418 21.1172 1.7023 21.0314L1.42784 20.3334ZM23.1669 14.0474C21.9827 13.2757 20.6797 12.6473 18.8312 12.1561L18.4459 13.6057C20.1375 14.0553 21.2945 14.6176 22.348 15.3041L23.1669 14.0474ZM17.8886 12.8809V18.0003H19.3886V12.8809H17.8886ZM18.3641 18.6983L24.2975 21.0316L24.8465 19.6357L18.913 17.3024L18.3641 18.6983ZM25.318 20.4113C25.5087 18.5788 25.6885 15.6917 23.1671 14.0475L22.3478 15.304C24.0301 16.401 24.0257 18.3375 23.826 20.256L25.318 20.4113ZM18.8312 12.1561C16.9709 11.6617 14.9832 11.4163 12.9996 11.417L13.0001 12.917C14.8626 12.9163 16.7201 13.1471 18.4459 13.6057L18.8312 12.1561ZM3.65184 15.3039C4.70537 14.6174 5.86238 14.055 7.55391 13.6055L7.16866 12.1558C5.32011 12.6471 4.01711 13.2755 2.83293 14.0471L3.65184 15.3039ZM6.61129 12.8807V18.0003H8.11129V12.8807H6.61129ZM7.08684 17.3023L1.15339 19.6354L1.7023 21.0314L7.63574 18.6983L7.08684 17.3023ZM2.17381 20.2558C1.97416 18.3372 1.96977 16.4007 3.65206 15.3037L2.83272 14.0473C0.311294 15.6915 0.491173 18.5786 0.681872 20.411L2.17381 20.2558ZM7.55391 13.6055C9.27976 13.1469 11.137 12.9163 12.9996 12.917L13.0001 11.417C11.0166 11.4163 9.029 11.6614 7.16866 12.1558L7.55391 13.6055Z" fill="#696F8C"/>
<path d="M7.1665 1.66699V0.916992H6.4165V1.66699H7.1665ZM12.9998 7.50033L12.4695 8.03065C12.6101 8.17131 12.8009 8.25033 12.9998 8.25033C13.1987 8.25033 13.3895 8.17131 13.5301 8.03066L12.9998 7.50033ZM6.63617 2.19732L12.4695 8.03065L13.5301 6.97L7.69684 1.13666L6.63617 2.19732ZM13.5301 8.03066L19.3635 2.19732L18.3028 1.13666L12.4695 6.97L13.5301 8.03066ZM7.1665 2.41699H11.2498V0.916992H7.1665V2.41699ZM7.9165 5.75033V1.66699H6.4165V5.75033H7.9165Z" fill="#696F8C"/>
</svg>
