<svg width="45" height="16" viewBox="0 0 45 16" fill="none" xmlns="http://www.w3.org/2000/svg">
<g clip-path="url(#clip0_1543_8597)">
<path d="M23.0922 5.37148C23.0667 7.38006 24.8822 8.50086 26.2498 9.16731C27.6549 9.85102 28.1269 10.2895 28.1213 10.901C28.1109 11.8368 27.0005 12.2498 25.9615 12.2658C24.1488 12.2939 23.0948 11.7764 22.2569 11.385L21.6039 14.4406C22.4446 14.828 24.0013 15.1658 25.6155 15.1807C29.4047 15.1807 31.8837 13.3102 31.8971 10.4102C31.9119 6.72967 26.8062 6.52595 26.8411 4.88085C26.8532 4.38202 27.3291 3.8497 28.3721 3.71435C28.8884 3.64598 30.3136 3.59366 31.9294 4.33772L32.5635 1.38136C31.6946 1.06497 30.5778 0.762008 29.1874 0.762008C25.6209 0.762008 23.1124 2.65791 23.0922 5.37148ZM38.6573 1.01665C37.9654 1.01665 37.3823 1.42025 37.1221 2.03961L31.7094 14.9635H35.4958L36.2493 12.8812H40.8762L41.3133 14.9635H44.6506L41.7384 1.01665H38.6573ZM39.187 4.78422L40.2797 10.0214H37.2871L39.187 4.78422ZM18.5014 1.01683L15.5168 14.9633H19.1249L22.1082 1.01648L18.5014 1.01683ZM13.1637 1.01683L9.4082 10.5094L7.88903 2.43797C7.71078 1.53694 7.00683 1.01665 6.2251 1.01665H0.0859873L0 1.42165C1.26033 1.69514 2.69229 2.13623 3.55984 2.6082C4.09076 2.89651 4.24216 3.14855 4.41657 3.83366L7.29392 14.9635H11.1068L16.9526 1.01665L13.1637 1.01683Z" fill="url(#paint0_linear_1543_8597)"/>
</g>
<defs>
<linearGradient id="paint0_linear_1543_8597" x1="2052.77" y1="44.1045" x2="2094.5" y2="-1436.71" gradientUnits="userSpaceOnUse">
<stop stop-color="#222357"/>
<stop offset="1" stop-color="#254AA5"/>
</linearGradient>
<clipPath id="clip0_1543_8597">
<rect width="44.6506" height="14.4766" fill="white" transform="translate(0 0.761719)"/>
</clipPath>
</defs>
</svg>
