<svg width="25" height="24" viewBox="0 0 25 24" fill="none" xmlns="http://www.w3.org/2000/svg">
<path d="M7.3 21.0003H17.7C19.3802 21.0003 20.2202 21.0003 20.862 20.6733C21.4265 20.3857 21.8854 19.9268 22.173 19.3623C22.5 18.7206 22.5 17.8805 22.5 16.2003V8.86862C22.5 8.55136 22.5 8.39273 22.4558 8.24909C22.4206 8.13462 22.3652 8.02751 22.2922 7.93281C22.2763 7.91209 22.2548 7.89645 22.2307 7.88622C22.1625 7.85722 22.0832 7.93075 22.0825 8.00488C22.0819 8.06923 22.0689 8.13349 22.0435 8.194C21.984 8.33575 21.812 8.44753 21.4681 8.67108L14.244 13.3667C13.6127 13.7771 13.2971 13.9822 12.957 14.062C12.6564 14.1326 12.3436 14.1326 12.043 14.062C11.7029 13.9822 11.3873 13.7771 10.756 13.3667L3.53193 8.67108C3.18801 8.44753 3.01604 8.33575 2.95649 8.194C2.93106 8.13349 2.91806 8.06923 2.91747 8.00488C2.9168 7.93075 2.83749 7.85722 2.76926 7.88622C2.7452 7.89645 2.72371 7.91209 2.70775 7.93281C2.63481 8.02751 2.57937 8.13462 2.54417 8.24909C2.5 8.39273 2.5 8.55136 2.5 8.86862V16.2003C2.5 17.8805 2.5 18.7206 2.82698 19.3623C3.1146 19.9268 3.57354 20.3857 4.13803 20.6733C4.77976 21.0003 5.61984 21.0003 7.3 21.0003Z" fill="black" stroke="black" stroke-width="2" stroke-linecap="round" stroke-linejoin="round"/>
<path d="M14.244 2.63297L21.772 7.52618C22.038 7.69908 22.171 7.78554 22.2674 7.90085C22.3527 8.00293 22.4167 8.12101 22.4558 8.24816C22.5 8.3918 22.5 8.55043 22.5 8.86769V16.1994C22.5 17.8796 22.5 18.7196 22.173 19.3614C21.8854 19.9259 21.4265 20.3848 20.862 20.6724C20.2202 20.9994 19.3802 20.9994 17.7 20.9994H7.3C5.61984 20.9994 4.77976 20.9994 4.13803 20.6724C3.57354 20.3848 3.1146 19.9259 2.82698 19.3614C2.5 18.7196 2.5 17.8796 2.5 16.1994V8.86769C2.5 8.55043 2.5 8.3918 2.54417 8.24816C2.58327 8.12101 2.64735 8.00293 2.73265 7.90085C2.82901 7.78554 2.96201 7.69908 3.22802 7.52618L10.756 2.63297M14.244 2.63297C13.6127 2.22266 13.2971 2.01751 12.957 1.93768C12.6564 1.86713 12.3436 1.86713 12.043 1.93768C11.7029 2.01751 11.3873 2.22266 10.756 2.63297M14.244 2.63297L21.4681 7.32864C21.812 7.55219 21.984 7.66396 22.0435 7.80571C22.0956 7.92959 22.0956 8.0692 22.0435 8.19307C21.984 8.33482 21.812 8.4466 21.4681 8.67015L14.244 13.3658C13.6127 13.7761 13.2971 13.9813 12.957 14.0611C12.6564 14.1317 12.3436 14.1317 12.043 14.0611C11.7029 13.9813 11.3873 13.7761 10.756 13.3658L3.53193 8.67015C3.18801 8.4466 3.01604 8.33482 2.95649 8.19307C2.90444 8.0692 2.90444 7.92959 2.95649 7.80571C3.01604 7.66396 3.18801 7.55219 3.53193 7.32864L10.756 2.63297" stroke="black" stroke-width="2" stroke-linecap="round" stroke-linejoin="round"/>
</svg>
