<svg width="39" height="24" viewBox="0 0 39 24" fill="none" xmlns="http://www.w3.org/2000/svg">
<path d="M14.168 2.56641H24.6679V21.4331H14.168V2.56641Z" fill="#FF5F00"/>
<path d="M14.8333 12C14.8333 8.16672 16.6333 4.76666 19.3998 2.5666C17.3667 0.966633 14.8001 0 12.0001 0C5.36657 0 0 5.36659 0 12C0 18.6334 5.36657 24 12 24C14.7999 24 17.3665 23.0334 19.3998 21.4332C16.6333 19.2666 14.8333 15.8333 14.8333 12Z" fill="#EB001B"/>
<path d="M38.8334 12C38.8334 18.6333 33.4669 24 26.8335 24C24.0335 24 21.4669 23.0334 19.4336 21.4332C22.2336 19.2333 24.0003 15.8333 24.0003 12C24.0003 8.16672 22.2002 4.76666 19.4336 2.5666C21.4668 0.966633 24.0335 0 26.8335 0C33.4669 0 38.8334 5.39999 38.8334 12Z" fill="#F79E1B"/>
</svg>
