<svg width="17" height="16" viewBox="0 0 17 16" fill="none" xmlns="http://www.w3.org/2000/svg">
<path d="M5.5 9.66699H11.5M5.5 6.33366H9.16667" stroke="#696F8C" stroke-width="1.5" stroke-linejoin="round"/>
<path d="M7.10753 13.9867L7.15947 13.2385H7.15947L7.10753 13.9867ZM1.84685 8.72604L2.59505 8.67411L1.84685 8.72604ZM15.153 8.72604L14.4048 8.67411V8.67411L15.153 8.72604ZM9.8923 13.9867L9.84037 13.2385H9.84037L9.8923 13.9867ZM9.8923 1.68059L9.84037 2.42879L9.8923 1.68059ZM15.153 6.94127L14.4048 6.99321V6.99321L15.153 6.94127ZM7.10753 1.68059L7.15947 2.42879L7.10753 1.68059ZM1.84685 6.94127L2.59505 6.99321H2.59505L1.84685 6.94127ZM2.91701 11.667L3.61305 11.9463L3.76766 11.5611L3.52331 11.2255L2.91701 11.667ZM1.84685 14.3337L1.15081 14.0543C1.04191 14.3257 1.10064 14.6356 1.30127 14.8483C1.50191 15.061 1.80786 15.1377 2.0851 15.0448L1.84685 14.3337ZM4.83174 13.3337L5.18515 12.6721L4.90002 12.5198L4.59348 12.6225L4.83174 13.3337ZM7.99992 2.41699H8.99992V0.916992H7.99992V2.41699ZM8.99992 13.2503H7.99992V14.7503H8.99992V13.2503ZM7.99992 13.2503C7.52305 13.2503 7.32295 13.2499 7.15947 13.2385L7.0556 14.7349C7.28403 14.7508 7.54822 14.7503 7.99992 14.7503V13.2503ZM1.08325 7.83366C1.08325 8.28536 1.0828 8.54955 1.09865 8.77798L2.59505 8.67411C2.58371 8.51063 2.58325 8.31053 2.58325 7.83366H1.08325ZM14.4166 7.83366C14.4166 8.31053 14.4161 8.51063 14.4048 8.67411L15.9012 8.77798C15.917 8.54955 15.9166 8.28536 15.9166 7.83366H14.4166ZM8.99992 14.7503C9.45162 14.7503 9.71581 14.7508 9.94424 14.7349L9.84037 13.2385C9.67689 13.2499 9.47679 13.2503 8.99992 13.2503V14.7503ZM14.4048 8.67411C14.2349 11.1212 12.2874 13.0687 9.84037 13.2385L9.94424 14.7349C13.1378 14.5133 15.6795 11.9716 15.9012 8.77798L14.4048 8.67411ZM8.99992 2.41699C9.47679 2.41699 9.67689 2.41745 9.84037 2.42879L9.94424 0.932394C9.71581 0.916538 9.45162 0.916992 8.99992 0.916992V2.41699ZM15.9166 7.83366C15.9166 7.38196 15.917 7.11777 15.9012 6.88934L14.4048 6.99321C14.4161 7.15669 14.4166 7.35679 14.4166 7.83366H15.9166ZM9.84037 2.42879C12.2874 2.59865 14.2349 4.54615 14.4048 6.99321L15.9012 6.88934C15.6795 3.69573 13.1378 1.15407 9.94424 0.932394L9.84037 2.42879ZM7.99992 0.916992C7.54822 0.916992 7.28403 0.916538 7.0556 0.932394L7.15947 2.42879C7.32295 2.41745 7.52305 2.41699 7.99992 2.41699V0.916992ZM2.58325 7.83366C2.58325 7.35679 2.58371 7.15669 2.59505 6.99321L1.09865 6.88934C1.0828 7.11777 1.08325 7.38196 1.08325 7.83366H2.58325ZM7.0556 0.932394C3.86199 1.15407 1.32033 3.69573 1.09865 6.88934L2.59505 6.99321C2.76491 4.54615 4.71241 2.59865 7.15947 2.42879L7.0556 0.932394ZM3.52331 11.2255C2.99543 10.5006 2.66111 9.62575 2.59505 8.67411L1.09865 8.77798C1.18476 10.0185 1.62153 11.162 2.31072 12.1085L3.52331 11.2255ZM2.22097 11.3877L1.15081 14.0543L2.5429 14.613L3.61305 11.9463L2.22097 11.3877ZM7.15947 13.2385C6.44783 13.1891 5.77972 12.9898 5.18515 12.6721L4.47832 13.9952C5.25567 14.4105 6.12882 14.6706 7.0556 14.7349L7.15947 13.2385ZM2.0851 15.0448L5.06999 14.0448L4.59348 12.6225L1.6086 13.6225L2.0851 15.0448Z" fill="#696F8C"/>
</svg>
