<svg width="21" height="20" viewBox="0 0 21 20" fill="none" xmlns="http://www.w3.org/2000/svg">
<path d="M6.75 12.0835H14.25M6.75 7.91683H11.3333" stroke="#696F8C" stroke-width="1.5" stroke-linejoin="round"/>
<path d="M8.75954 17.4832L8.81147 16.735L8.81147 16.735L8.75954 17.4832ZM2.18369 10.9073L2.93189 10.8554L2.18369 10.9073ZM18.8164 10.9073L18.0682 10.8554L18.0682 10.8554L18.8164 10.9073ZM12.2405 17.4832L12.1886 16.735L12.1886 16.735L12.2405 17.4832ZM12.2405 2.1005L12.1886 2.8487L12.1886 2.8487L12.2405 2.1005ZM18.8164 8.67635L18.0682 8.72828L18.0682 8.72828L18.8164 8.67635ZM8.75954 2.1005L8.81147 2.8487L8.81147 2.8487L8.75954 2.1005ZM2.18369 8.67635L2.93189 8.72828L2.93189 8.72828L2.18369 8.67635ZM3.52139 14.5835L4.21743 14.8628L4.37203 14.4776L4.12768 14.142L3.52139 14.5835ZM2.18369 17.9168L1.48765 17.6375C1.37875 17.9089 1.43748 18.2188 1.63811 18.4315C1.83874 18.6442 2.14469 18.7209 2.42194 18.628L2.18369 17.9168ZM5.91479 16.6668L6.26821 16.0053L5.98307 15.853L5.67654 15.9557L5.91479 16.6668ZM9.87502 2.8335H11.125V1.3335H9.87502V2.8335ZM11.125 16.7502H9.87502V18.2502H11.125V16.7502ZM9.87502 16.7502C9.28208 16.7502 9.02395 16.7497 8.81147 16.735L8.70761 18.2314C8.98502 18.2506 9.30725 18.2502 9.87502 18.2502V16.7502ZM1.41669 9.79183C1.41669 10.3596 1.41623 10.6818 1.43549 10.9592L2.93189 10.8554C2.91714 10.6429 2.91669 10.3848 2.91669 9.79183H1.41669ZM18.0834 9.79183C18.0834 10.3848 18.0829 10.6429 18.0682 10.8554L19.5646 10.9592C19.5838 10.6818 19.5834 10.3596 19.5834 9.79183H18.0834ZM11.125 18.2502C11.6928 18.2502 12.015 18.2506 12.2924 18.2314L12.1886 16.735C11.9761 16.7497 11.718 16.7502 11.125 16.7502V18.2502ZM18.0682 10.8554C17.8494 14.0075 15.3407 16.5162 12.1886 16.735L12.2924 18.2314C16.1911 17.9607 19.2939 14.8579 19.5646 10.9592L18.0682 10.8554ZM11.125 2.8335C11.718 2.8335 11.9761 2.83395 12.1886 2.8487L12.2924 1.3523C12.015 1.33304 11.6928 1.3335 11.125 1.3335V2.8335ZM19.5834 9.79183C19.5834 9.22406 19.5838 8.90183 19.5646 8.62441L18.0682 8.72828C18.0829 8.94075 18.0834 9.19889 18.0834 9.79183H19.5834ZM12.1886 2.8487C15.3407 3.06749 17.8494 5.57615 18.0682 8.72828L19.5646 8.62442C19.2939 4.72572 16.1911 1.62291 12.2924 1.3523L12.1886 2.8487ZM9.87502 1.3335C9.30725 1.3335 8.98503 1.33304 8.70761 1.3523L8.81147 2.8487C9.02395 2.83395 9.28208 2.8335 9.87502 2.8335V1.3335ZM2.91669 9.79183C2.91669 9.19889 2.91714 8.94075 2.93189 8.72828L1.43549 8.62442C1.41623 8.90183 1.41669 9.22405 1.41669 9.79183H2.91669ZM8.70761 1.3523C4.80891 1.62291 1.7061 4.72572 1.43549 8.62442L2.93189 8.72828C3.15068 5.57615 5.65934 3.06749 8.81147 2.8487L8.70761 1.3523ZM4.12768 14.142C3.44767 13.2082 3.01696 12.081 2.93189 10.8554L1.43549 10.9592C1.54062 12.4738 2.07377 13.8696 2.91509 15.025L4.12768 14.142ZM2.82534 14.3042L1.48765 17.6375L2.87973 18.1962L4.21743 14.8628L2.82534 14.3042ZM8.81147 16.735C7.89504 16.6713 7.03426 16.4146 6.26821 16.0053L5.56137 17.3283C6.51021 17.8353 7.57602 18.1528 8.70761 18.2314L8.81147 16.735ZM2.42194 18.628L6.15304 17.378L5.67654 15.9557L1.94544 17.2057L2.42194 18.628Z" fill="#696F8C"/>
</svg>
