<svg width="20" height="20" viewBox="0 0 20 20" fill="none" xmlns="http://www.w3.org/2000/svg">
<path d="M1.66602 5L7.42687 8.26414C9.55068 9.4675 10.448 9.4675 12.5718 8.26414L18.3327 5" stroke="white" stroke-width="1.2" stroke-linejoin="round"/>
<path d="M1.67916 11.2297C1.73363 13.7844 1.76087 15.0616 2.70348 16.0079C3.64608 16.954 4.95796 16.9869 7.58171 17.0529C9.19877 17.0935 10.7999 17.0935 12.417 17.0529C15.0408 16.9869 16.3526 16.954 17.2953 16.0079C18.2379 15.0616 18.2651 13.7844 18.3195 11.2297C18.3371 10.4083 18.3371 9.59177 18.3195 8.77035C18.2651 6.21574 18.2379 4.93843 17.2953 3.99224C16.3526 3.04605 15.0408 3.01309 12.417 2.94716C10.7999 2.90653 9.19877 2.90653 7.5817 2.94715C4.95796 3.01307 3.64608 3.04603 2.70347 3.99223C1.76087 4.93842 1.73363 6.21573 1.67915 8.77035C1.66163 9.59177 1.66164 10.4083 1.67916 11.2297Z" stroke="white" stroke-width="1.2" stroke-linejoin="round"/>
</svg>
