<svg width="14" height="14" viewBox="0 0 14 14" fill="none" xmlns="http://www.w3.org/2000/svg">
<path fill-rule="evenodd" clip-rule="evenodd" d="M8.24847 1.03346C8.06176 1.0205 7.84486 1.0205 7.46039 1.02051H7.46038H6.53929H6.53929C6.15482 1.0205 5.93791 1.0205 5.75121 1.03346C3.06567 1.21987 0.928362 3.35717 0.741956 6.04271C0.728997 6.22942 0.728999 6.44632 0.729004 6.83079V6.8308V6.87688V6.87689C0.728999 7.26136 0.728997 7.47827 0.741956 7.66497C0.808356 8.62159 1.12259 9.50928 1.62104 10.2637L0.860152 12.9788L3.75481 12.1396C4.36445 12.4379 5.03885 12.6248 5.75121 12.6742C5.93791 12.6872 6.15482 12.6872 6.53929 12.6872H7.46039C7.84486 12.6872 8.06176 12.6872 8.24847 12.6742C10.934 12.4878 13.0713 10.3505 13.2577 7.66497C13.2707 7.47827 13.2707 7.26136 13.2707 6.87689V6.83079C13.2707 6.44632 13.2707 6.22942 13.2577 6.04271C13.0713 3.35717 10.934 1.21987 8.24847 1.03346ZM4.37484 8.02051H9.62484V8.89551H4.37484V8.02051ZM4.37484 5.10384H7.58317V5.97884H4.37484V5.10384Z" fill="#235DE4"/>
</svg>
