<svg width="30" height="30" viewBox="0 0 30 30" fill="none" xmlns="http://www.w3.org/2000/svg">
<path d="M9.375 18.75H20.625M9.375 12.5H16.25" stroke="#101438" stroke-width="2" stroke-linejoin="round"/>
<path d="M12.3893 26.8495L12.4585 25.8519H12.4585L12.3893 26.8495ZM2.5255 16.9857L3.5231 16.9165L2.5255 16.9857ZM27.4745 16.9857L26.4769 16.9165V16.9165L27.4745 16.9857ZM17.6107 26.8495L17.5415 25.8519H17.5415L17.6107 26.8495ZM12.3893 3.7755L12.4585 4.7731L12.3893 3.7755ZM2.5255 13.6393L3.5231 13.7085L2.5255 13.6393ZM4.53205 22.5L5.46011 22.8724L5.66624 22.3588L5.34044 21.9114L4.53205 22.5ZM2.5255 27.5L1.59745 27.1276C1.45225 27.4894 1.53056 27.9026 1.79806 28.1862C2.06557 28.4698 2.47351 28.572 2.84317 28.4482L2.5255 27.5ZM8.12216 25.625L8.59338 24.743L8.2132 24.5399L7.80449 24.6768L8.12216 25.625ZM15.9375 25.875H14.0625V27.875H15.9375V25.875ZM14.0625 25.875C13.1752 25.875 12.7826 25.8744 12.4585 25.8519L12.32 27.8471C12.7307 27.8756 13.2087 27.875 14.0625 27.875V25.875ZM1.5 15.3125C1.5 16.1663 1.49939 16.6442 1.5279 17.055L3.5231 16.9165C3.50061 16.5924 3.5 16.1998 3.5 15.3125H1.5ZM26.5 15.3125C26.5 16.1998 26.4994 16.5924 26.4769 16.9165L28.4721 17.055C28.5006 16.6443 28.5 16.1663 28.5 15.3125H26.5ZM15.9375 27.875C16.7913 27.875 17.2693 27.8756 17.68 27.8471L17.5415 25.8519C17.2174 25.8744 16.8248 25.875 15.9375 25.875V27.875ZM26.4769 16.9165C26.1444 21.7069 22.3319 25.5194 17.5415 25.8519L17.68 27.8471C23.4658 27.4455 28.0705 22.8408 28.4721 17.055L26.4769 16.9165ZM28.5 15.3125V12.5H26.5V15.3125H28.5ZM14.0625 2.75C13.2087 2.75 12.7308 2.74939 12.32 2.7779L12.4585 4.7731C12.7826 4.75061 13.1752 4.75 14.0625 4.75V2.75ZM3.5 15.3125C3.5 14.4252 3.50061 14.0326 3.5231 13.7085L1.5279 13.57C1.49939 13.9808 1.5 14.4587 1.5 15.3125H3.5ZM12.32 2.7779C6.53421 3.1795 1.9295 7.78421 1.5279 13.57L3.5231 13.7085C3.85561 8.91811 7.66811 5.10561 12.4585 4.7731L12.32 2.7779ZM5.34044 21.9114C4.30699 20.4921 3.65239 18.7791 3.5231 16.9165L1.5279 17.055C1.68393 19.3028 2.47511 21.374 3.72366 23.0886L5.34044 21.9114ZM3.60399 22.1276L1.59745 27.1276L3.45356 27.8724L5.46011 22.8724L3.60399 22.1276ZM12.4585 25.8519C11.0659 25.7552 9.7577 25.365 8.59338 24.743L7.65093 26.507C9.05896 27.2593 10.6406 27.7305 12.32 27.8471L12.4585 25.8519ZM2.84317 28.4482L8.43982 26.5732L7.80449 24.6768L2.20783 26.5518L2.84317 28.4482Z" fill="#101438"/>
<path d="M27.5 6.25L17.5 6.25M27.5 6.25L23.75 2.5M27.5 6.25L23.75 10" stroke="#101438" stroke-width="2"/>
</svg>
