<svg width="31" height="30" viewBox="0 0 31 30" fill="none" xmlns="http://www.w3.org/2000/svg">
<path d="M9.875 18.75H21.125M9.875 12.5H16.75" stroke="#2E1A53" stroke-width="2" stroke-linejoin="round"/>
<path d="M12.8893 26.8495L12.9585 25.8519H12.9585L12.8893 26.8495ZM3.0255 16.9857L4.0231 16.9165L3.0255 16.9857ZM27.9745 16.9857L26.9769 16.9165V16.9165L27.9745 16.9857ZM18.1107 26.8495L18.0415 25.8519H18.0415L18.1107 26.8495ZM27.9745 13.6393L28.9721 13.57L27.9745 13.6393ZM12.8893 3.7755L12.9585 4.7731L12.8893 3.7755ZM3.0255 13.6393L4.0231 13.7085L3.0255 13.6393ZM5.03205 22.5L5.96011 22.8724L6.16624 22.3588L5.84044 21.9114L5.03205 22.5ZM3.0255 27.5L2.09745 27.1276C1.95225 27.4894 2.03056 27.9026 2.29806 28.1862C2.56557 28.4698 2.97351 28.572 3.34317 28.4482L3.0255 27.5ZM8.62216 25.625L9.09338 24.743L8.7132 24.5399L8.30449 24.6768L8.62216 25.625ZM14.5625 4.75H15.5V2.75H14.5625V4.75ZM16.4375 25.875H14.5625V27.875H16.4375V25.875ZM14.5625 25.875C13.6752 25.875 13.2826 25.8744 12.9585 25.8519L12.82 27.8471C13.2307 27.8756 13.7087 27.875 14.5625 27.875V25.875ZM2 15.3125C2 16.1663 1.99939 16.6442 2.0279 17.055L4.0231 16.9165C4.00061 16.5924 4 16.1998 4 15.3125H2ZM27 15.3125C27 16.1998 26.9994 16.5924 26.9769 16.9165L28.9721 17.055C29.0006 16.6443 29 16.1663 29 15.3125H27ZM16.4375 27.875C17.2913 27.875 17.7693 27.8756 18.18 27.8471L18.0415 25.8519C17.7174 25.8744 17.3248 25.875 16.4375 25.875V27.875ZM26.9769 16.9165C26.6444 21.7069 22.8319 25.5194 18.0415 25.8519L18.18 27.8471C23.9658 27.4455 28.5705 22.8408 28.9721 17.055L26.9769 16.9165ZM29 15.3125C29 14.4587 29.0006 13.9807 28.9721 13.57L26.9769 13.7085C26.9994 14.0326 27 14.4252 27 15.3125H29ZM14.5625 2.75C13.7087 2.75 13.2308 2.74939 12.82 2.7779L12.9585 4.7731C13.2826 4.75061 13.6752 4.75 14.5625 4.75V2.75ZM4 15.3125C4 14.4252 4.00061 14.0326 4.0231 13.7085L2.0279 13.57C1.99939 13.9808 2 14.4587 2 15.3125H4ZM12.82 2.7779C7.03421 3.1795 2.4295 7.78421 2.0279 13.57L4.0231 13.7085C4.35561 8.91811 8.16811 5.10561 12.9585 4.7731L12.82 2.7779ZM5.84044 21.9114C4.80699 20.4921 4.15239 18.7791 4.0231 16.9165L2.0279 17.055C2.18393 19.3028 2.97511 21.374 4.22366 23.0886L5.84044 21.9114ZM4.10399 22.1276L2.09745 27.1276L3.95356 27.8724L5.96011 22.8724L4.10399 22.1276ZM12.9585 25.8519C11.5659 25.7552 10.2577 25.365 9.09338 24.743L8.15093 26.507C9.55896 27.2593 11.1406 27.7305 12.82 27.8471L12.9585 25.8519ZM3.34317 28.4482L8.93982 26.5732L8.30449 24.6768L2.70783 26.5518L3.34317 28.4482ZM26.5757 11.5436C26.7879 12.2343 26.9249 12.959 26.9769 13.7085L28.9721 13.57C28.9094 12.6669 28.7441 11.7917 28.4875 10.9563L26.5757 11.5436Z" fill="#2E1A53"/>
<path d="M18 7.5L20.5 10L28 2.5" stroke="#2E1A53" stroke-width="2"/>
</svg>
