<svg width="20" height="20" viewBox="0 0 20 20" fill="none" xmlns="http://www.w3.org/2000/svg">
<path d="M6.25 12.0833H13.75M6.25 7.91665H10.8333" stroke="#696F8C" stroke-width="1.5" stroke-linejoin="round"/>
<path d="M8.25936 17.483L8.31129 16.7348L8.31129 16.7348L8.25936 17.483ZM1.68351 10.9071L2.43171 10.8552L1.68351 10.9071ZM18.3162 10.9071L17.568 10.8552L17.568 10.8552L18.3162 10.9071ZM11.7403 17.483L11.6884 16.7348L11.6884 16.7348L11.7403 17.483ZM11.7403 2.10031L11.6884 2.84851L11.6884 2.84851L11.7403 2.10031ZM18.3162 8.67617L17.568 8.7281L17.568 8.7281L18.3162 8.67617ZM8.25936 2.10031L8.31129 2.84851L8.31129 2.84851L8.25936 2.10031ZM1.68351 8.67617L2.43171 8.7281L2.43171 8.7281L1.68351 8.67617ZM3.0212 14.5833L3.71725 14.8626L3.87185 14.4774L3.6275 14.1418L3.0212 14.5833ZM1.68351 17.9166L0.987463 17.6373C0.878565 17.9087 0.937296 18.2186 1.13793 18.4313C1.33856 18.644 1.64451 18.7207 1.92176 18.6278L1.68351 17.9166ZM5.41461 16.6666L5.76803 16.0051L5.48289 15.8528L5.17636 15.9555L5.41461 16.6666ZM9.37484 2.83331H10.6248V1.33331H9.37484V2.83331ZM10.6248 16.75H9.37484V18.25H10.6248V16.75ZM9.37484 16.75C8.7819 16.75 8.52376 16.7495 8.31129 16.7348L8.20742 18.2312C8.48484 18.2504 8.80706 18.25 9.37484 18.25V16.75ZM0.916504 9.79165C0.916504 10.3594 0.91605 10.6816 0.935306 10.9591L2.43171 10.8552C2.41696 10.6427 2.4165 10.3846 2.4165 9.79165H0.916504ZM17.5832 9.79165C17.5832 10.3846 17.5827 10.6427 17.568 10.8552L19.0644 10.9591C19.0836 10.6816 19.0832 10.3594 19.0832 9.79165H17.5832ZM10.6248 18.25C11.1926 18.25 11.5148 18.2504 11.7923 18.2312L11.6884 16.7348C11.4759 16.7495 11.2178 16.75 10.6248 16.75V18.25ZM17.568 10.8552C17.3492 14.0073 14.8405 16.516 11.6884 16.7348L11.7923 18.2312C15.6909 17.9606 18.7938 14.8578 19.0644 10.9591L17.568 10.8552ZM10.6248 2.83331C11.2178 2.83331 11.4759 2.83377 11.6884 2.84851L11.7923 1.35212C11.5148 1.33286 11.1926 1.33331 10.6248 1.33331V2.83331ZM19.0832 9.79165C19.0832 9.22387 19.0836 8.90165 19.0644 8.62423L17.568 8.7281C17.5827 8.94057 17.5832 9.19871 17.5832 9.79165H19.0832ZM11.6884 2.84851C14.8405 3.06731 17.3492 5.57596 17.568 8.7281L19.0644 8.62423C18.7938 4.72554 15.6909 1.62273 11.7923 1.35212L11.6884 2.84851ZM9.37484 1.33331C8.80706 1.33331 8.48484 1.33286 8.20742 1.35212L8.31129 2.84851C8.52376 2.83377 8.7819 2.83331 9.37484 2.83331V1.33331ZM2.4165 9.79165C2.4165 9.19871 2.41696 8.94057 2.43171 8.7281L0.935306 8.62423C0.91605 8.90165 0.916504 9.22387 0.916504 9.79165H2.4165ZM8.20742 1.35212C4.30873 1.62273 1.20592 4.72554 0.935306 8.62423L2.43171 8.7281C2.6505 5.57596 5.15915 3.06731 8.31129 2.84851L8.20742 1.35212ZM3.6275 14.1418C2.94749 13.208 2.51678 12.0809 2.43171 10.8552L0.935306 10.9591C1.04044 12.4737 1.57358 13.8694 2.41491 15.0248L3.6275 14.1418ZM2.32516 14.304L0.987463 17.6373L2.37955 18.196L3.71725 14.8626L2.32516 14.304ZM8.31129 16.7348C7.39486 16.6712 6.53408 16.4144 5.76803 16.0051L5.06119 17.3282C6.01003 17.8351 7.07584 18.1526 8.20742 18.2312L8.31129 16.7348ZM1.92176 18.6278L5.65286 17.3778L5.17636 15.9555L1.44525 17.2055L1.92176 18.6278Z" fill="#696F8C"/>
</svg>
