<svg width="16" height="17" viewBox="0 0 16 17" fill="none" xmlns="http://www.w3.org/2000/svg">
<path d="M9.66732 8.49998C9.66732 9.42045 8.92112 10.1666 8.00065 10.1666C7.08018 10.1666 6.33398 9.42045 6.33398 8.49998C6.33398 7.57951 7.08018 6.83331 8.00065 6.83331C8.92112 6.83331 9.66732 7.57951 9.66732 8.49998Z" stroke="#141B34"/>
<path d="M12.6673 7.92771C12.4506 7.89631 12.228 7.87244 12.0007 7.85651M4.00065 9.14357C3.7733 9.12771 3.55072 9.10377 3.33398 9.07237" stroke="#141B34" stroke-linecap="round" stroke-linejoin="round"/>
<path d="M8.00065 13.5C7.11232 13.9149 5.94536 14.1666 4.66732 14.1666C3.9567 14.1666 3.28044 14.0888 2.66732 13.9484C1.66703 13.7192 1.33398 13.1176 1.33398 12.0906V4.90929C1.33398 4.25274 2.02734 3.8018 2.66732 3.94838C3.28044 4.08881 3.9567 4.16665 4.66732 4.16665C5.94536 4.16665 7.11232 3.91489 8.00065 3.49998C8.88898 3.08507 10.0559 2.83331 11.334 2.83331C12.0446 2.83331 12.7209 2.91115 13.334 3.05158C14.3885 3.2931 14.6673 3.91355 14.6673 4.90929V12.0906C14.6673 12.7472 13.974 13.1982 13.334 13.0516C12.7209 12.9111 12.0446 12.8333 11.334 12.8333C10.0559 12.8333 8.88898 13.085 8.00065 13.5Z" stroke="#141B34"/>
</svg>
