<svg width="37" height="41" viewBox="0 0 37 41" fill="none" xmlns="http://www.w3.org/2000/svg">
<path fill-rule="evenodd" clip-rule="evenodd" d="M0.733276 4.1C0.733276 3.01261 1.16524 1.96976 1.93414 1.20086C2.70304 0.431963 3.74589 0 4.83328 0L27.2657 0L36.2666 9.00087V36.9C36.2666 37.9874 35.8346 39.0302 35.0657 39.7991C34.2968 40.568 33.254 41 32.1666 41H4.83328C3.74589 41 2.70304 40.568 1.93414 39.7991C1.16524 39.0302 0.733276 37.9874 0.733276 36.9V4.1ZM18.4999 16.4H14.3999V30.0667H17.1333V24.6H18.4999C19.5873 24.6 20.6302 24.168 21.3991 23.3991C22.168 22.6302 22.5999 21.5874 22.5999 20.5C22.5999 19.4126 22.168 18.3698 21.3991 17.6009C20.6302 16.832 19.5873 16.4 18.4999 16.4ZM5.80088 16.7991C5.60974 16.6074 5.366 16.4769 5.10057 16.424C4.83514 16.371 4.55997 16.3981 4.30994 16.5017C4.05992 16.6054 3.84629 16.7809 3.69615 17.0061C3.54602 17.2313 3.46613 17.496 3.46661 17.7667V30.0667H6.19994V21.0658L7.56661 22.4325L8.93328 21.0658V30.0667H11.6666V17.7667C11.6671 17.496 11.5872 17.2313 11.4371 17.0061C11.2869 16.7809 11.0733 16.6054 10.8233 16.5017C10.5732 16.3981 10.2981 16.371 10.0326 16.424C9.76722 16.4769 9.52348 16.6074 9.33234 16.7991L7.56661 18.5675L5.80088 16.7991ZM29.4333 19.1333H25.3333V16.4H32.1666C32.4204 16.4 32.6692 16.4707 32.8851 16.6041C33.101 16.7375 33.2755 16.9285 33.389 17.1555C33.5025 17.3825 33.5505 17.6366 33.5278 17.8894C33.505 18.1422 33.4122 18.3836 33.2599 18.5867L30.6605 22.0525C31.5971 22.3446 32.3979 22.9627 32.9175 23.7947C33.4372 24.6268 33.6413 25.6176 33.4928 26.5873C33.3443 27.557 32.8531 28.4413 32.1082 29.0797C31.3634 29.7181 30.4143 30.0683 29.4333 30.0667H25.3333V27.3333H29.4333C29.7957 27.3333 30.1434 27.1893 30.3997 26.933C30.656 26.6767 30.7999 26.3291 30.7999 25.9667C30.7999 25.6042 30.656 25.2566 30.3997 25.0003C30.1434 24.744 29.7957 24.6 29.4333 24.6H28.0666C27.8128 24.6 27.564 24.5293 27.3481 24.3959C27.1322 24.2625 26.9577 24.0715 26.8442 23.8445C26.7307 23.6175 26.6827 23.3634 26.7055 23.1106C26.7283 22.8578 26.821 22.6164 26.9733 22.4133L29.4333 19.1333Z" fill="#235DE4"/>
</svg>
