<svg width="20" height="20" viewBox="0 0 20 20" fill="none" xmlns="http://www.w3.org/2000/svg">
<path d="M3.27354 7.73211C3.27357 4.0359 6.28715 1.04297 10.0003 1.04297C13.7135 1.04297 16.7271 4.03592 16.7271 7.73216C16.7272 8.59195 16.785 9.24078 17.1814 9.82403C17.3323 10.0428 17.6181 10.4126 17.8084 10.7101C18.0216 11.0432 18.2298 11.445 18.3014 11.9131C18.535 13.4405 17.4582 14.4293 16.3858 14.8724C12.6085 16.4331 7.39213 16.4331 3.61487 14.8724C2.54246 14.4293 1.46563 13.4405 1.69922 11.9131C1.77082 11.445 1.97909 11.0432 2.19227 10.7101C2.3826 10.4126 2.6684 10.0427 2.81925 9.82396C3.21564 9.24074 3.27346 8.59184 3.27354 7.73211Z" fill="#8896AC"/>
<path d="M12.3147 18.2926C11.6452 18.7136 10.8489 18.9564 9.99872 18.9564C9.1485 18.9564 8.35227 18.7136 7.68278 18.2926C7.08858 17.9189 6.79148 17.732 6.89545 17.4214C6.99942 17.1108 7.40938 17.1456 8.22932 17.2152C9.40197 17.3147 10.5955 17.3147 11.7681 17.2152C12.5881 17.1456 12.998 17.1108 13.102 17.4214C13.206 17.732 12.9089 17.9189 12.3147 18.2926Z" fill="#8896AC"/>
</svg>
