<svg width="20" height="20" viewBox="0 0 20 20" fill="none" xmlns="http://www.w3.org/2000/svg">
<path d="M17.9168 13.3346L18.4058 13.9033C18.6783 13.669 18.7463 13.2745 18.568 12.9625L17.9168 13.3346ZM2.0835 13.3346L1.43231 12.9625C1.25405 13.2745 1.32207 13.669 1.5945 13.9033L2.0835 13.3346ZM16.2502 10.418H15.5002V10.6171L15.599 10.7901L16.2502 10.418ZM3.75016 10.418L4.40135 10.7901L4.50016 10.6171V10.418H3.75016ZM10.0002 16.5846C13.3981 16.5846 16.4775 15.5615 18.4058 13.9033L17.4278 12.766C15.8371 14.1338 13.1362 15.0846 10.0002 15.0846V16.5846ZM1.5945 13.9033C3.52284 15.5615 6.60219 16.5846 10.0002 16.5846V15.0846C6.86409 15.0846 4.16324 14.1338 2.57249 12.766L1.5945 13.9033ZM18.568 12.9625L16.9013 10.0459L15.599 10.7901L17.2656 13.7067L18.568 12.9625ZM17.0002 10.418V7.91797H15.5002V10.418H17.0002ZM3.00016 7.91797V10.418H4.50016V7.91797H3.00016ZM3.09898 10.0459L1.43231 12.9625L2.73468 13.7067L4.40135 10.7901L3.09898 10.0459ZM10.0002 0.917969C6.13417 0.917969 3.00016 4.05198 3.00016 7.91797H4.50016C4.50016 4.8804 6.9626 2.41797 10.0002 2.41797V0.917969ZM17.0002 7.91797C17.0002 4.05198 13.8662 0.917969 10.0002 0.917969V2.41797C13.0377 2.41797 15.5002 4.8804 15.5002 7.91797H17.0002Z" fill="#696F8C"/>
<path d="M13.3337 15.0026C13.3337 16.8436 11.8413 18.3359 10.0003 18.3359C8.15938 18.3359 6.66699 16.8436 6.66699 15.0026" stroke="#696F8C" stroke-width="1.5" stroke-linejoin="round"/>
</svg>
