<svg width="26" height="26" viewBox="0 0 26 26" fill="none" xmlns="http://www.w3.org/2000/svg">
<path d="M24.0828 17.6663L24.7348 18.4246C25.098 18.1122 25.1887 17.5861 24.951 17.1702L24.0828 17.6663ZM1.91611 17.6663L1.04786 17.1702C0.810183 17.5861 0.900877 18.1122 1.26411 18.4246L1.91611 17.6663ZM21.7494 13.583H20.7494V13.8486L20.8812 14.0791L21.7494 13.583ZM4.24944 13.583L5.11768 14.0791L5.24944 13.8486V13.583H4.24944ZM12.9994 22.1663C17.7479 22.1663 22.0464 20.7363 24.7348 18.4246L23.4308 16.9081C21.1925 18.8328 17.3987 20.1663 12.9994 20.1663V22.1663ZM1.26411 18.4246C3.95253 20.7363 8.25101 22.1663 12.9994 22.1663V20.1663C8.60021 20.1663 4.8064 18.8328 2.5681 16.9081L1.26411 18.4246ZM24.951 17.1702L22.6177 13.0869L20.8812 14.0791L23.2145 18.1625L24.951 17.1702ZM22.7494 13.583V10.083H20.7494V13.583H22.7494ZM3.24944 10.083V13.583H5.24944V10.083H3.24944ZM3.3812 13.0869L1.04786 17.1702L2.78435 18.1625L5.11768 14.0791L3.3812 13.0869ZM12.9994 0.333008C7.61466 0.333008 3.24944 4.69823 3.24944 10.083H5.24944C5.24944 5.8028 8.71923 2.33301 12.9994 2.33301V0.333008ZM22.7494 10.083C22.7494 4.69823 18.3842 0.333008 12.9994 0.333008V2.33301C17.2796 2.33301 20.7494 5.8028 20.7494 10.083H22.7494Z" fill="#696F8C"/>
<path d="M9.5 23.5C10.4288 24.2255 11.6554 24.6667 13 24.6667C14.3446 24.6667 15.5712 24.2255 16.5 23.5" stroke="#696F8C" stroke-width="2" stroke-linejoin="round"/>
</svg>
