<svg width="18" height="18" viewBox="0 0 18 18" fill="none" xmlns="http://www.w3.org/2000/svg">
<path d="M16.9977 1.11897C16.6082 0.699478 15.9975 0.542352 15.414 0.486114C14.8009 0.427022 14.0666 0.466323 13.2761 0.57001C11.6906 0.77797 9.77518 1.25935 7.93516 1.85163C6.09398 2.44429 4.29926 3.15737 2.95519 3.84055C2.28627 4.18056 1.7061 4.52459 1.28433 4.85504C1.0743 5.01959 0.882666 5.19683 0.738505 5.38547C0.601008 5.5654 0.456344 5.82141 0.458333 6.13001C0.463556 6.94008 1.01522 7.51258 1.60271 7.89685C2.20234 8.28908 2.9833 8.58463 3.75966 8.81615C4.54435 9.05015 5.36953 9.23149 6.07893 9.37847C6.12541 9.38811 6.21834 9.40732 6.3322 9.43085C6.761 9.51945 6.97541 9.56375 7.17695 9.50343C7.3785 9.4431 7.53344 9.28816 7.84333 8.97827L10.9107 5.91091C11.2362 5.58547 11.7638 5.58547 12.0892 5.91091C12.4147 6.23635 12.4147 6.76398 12.0892 7.08942L9.22869 9.94994C8.91282 10.2658 8.75489 10.4237 8.69511 10.6287C8.63534 10.8337 8.68354 11.0513 8.77994 11.4865C9.15368 13.1738 9.47814 14.5681 9.80189 15.5061C9.99098 16.0539 10.2037 16.5282 10.4732 16.8779C10.7543 17.2429 11.1368 17.5187 11.6402 17.5409C11.9536 17.5547 12.2142 17.4116 12.3929 17.2789C12.5812 17.139 12.7583 16.9514 12.9225 16.7462C13.2526 16.3339 13.5993 15.7634 13.9443 15.1041C14.6377 13.7791 15.3718 12.0025 15.993 10.1748C16.614 8.3479 17.1314 6.44233 17.3807 4.85858C17.505 4.06875 17.5665 3.33522 17.5323 2.7208C17.4999 2.13813 17.3758 1.52604 16.9977 1.11897Z" fill="white"/>
</svg>
