<svg width="20" height="20" viewBox="0 0 20 20" fill="none" xmlns="http://www.w3.org/2000/svg">
<path d="M7.08317 13.3327L4.58317 1.66606L1.6665 1.66602" stroke="white" stroke-width="1.2" stroke-linejoin="round"/>
<path d="M18.3332 5.41602H18.9332C18.9332 5.08464 18.6645 4.81602 18.3332 4.81602V5.41602ZM5.4165 15.8327H4.8165V16.4327H5.4165V15.8327ZM7.9165 13.3327L7.9165 13.9327H7.9165V13.3327ZM13.1359 13.9327C15.2243 13.9327 16.7168 12.9817 17.6533 11.3986C18.5644 9.85844 18.9332 7.75386 18.9332 5.41602L17.7332 5.41602C17.7332 7.6615 17.3731 9.51528 16.6205 10.7876C15.8932 12.017 14.7871 12.7327 13.1359 12.7327V13.9327ZM5.4165 16.4327H14.5832L14.5832 15.2327L5.4165 15.2327V16.4327ZM7.9165 13.3327C7.91651 12.7327 7.91621 12.7327 7.9159 12.7327C7.91578 12.7327 7.91546 12.7327 7.91522 12.7327C7.91475 12.7327 7.91424 12.7327 7.91369 12.7327C7.9126 12.7327 7.91134 12.7327 7.90994 12.7327C7.90712 12.7328 7.90369 12.7328 7.89966 12.7329C7.89161 12.733 7.88115 12.7332 7.86845 12.7337C7.84306 12.7345 7.8086 12.7361 7.76634 12.7391C7.68203 12.7451 7.5655 12.7569 7.42725 12.7799C7.15358 12.8255 6.77951 12.9179 6.39818 13.1085C6.0145 13.3004 5.61257 13.5976 5.3079 14.0546C5.00073 14.5153 4.8165 15.1027 4.8165 15.8327H6.0165C6.0165 15.3127 6.14478 14.9626 6.30636 14.7202C6.47044 14.4741 6.69351 14.3025 6.93483 14.1819C7.1785 14.06 7.42943 13.9961 7.62451 13.9636C7.72063 13.9476 7.79942 13.9398 7.85182 13.9361C7.87793 13.9342 7.89718 13.9334 7.90841 13.933C7.91402 13.9328 7.9176 13.9327 7.919 13.9327C7.9197 13.9327 7.91986 13.9327 7.91945 13.9327C7.91924 13.9327 7.91889 13.9327 7.9184 13.9327C7.91816 13.9327 7.91788 13.9327 7.91756 13.9327C7.9174 13.9327 7.91713 13.9327 7.91706 13.9327C7.91678 13.9327 7.9165 13.9327 7.9165 13.3327ZM7.9165 13.9327L10.5262 13.9327V12.7327H7.9165V13.9327ZM10.5262 13.9327H13.1359V12.7327L10.5262 12.7327V13.9327ZM18.3332 4.81602L15.8332 4.81602V6.01602L18.3332 6.01602V4.81602ZM8.33316 4.81602L5.4165 4.81605L5.41651 6.01605L8.33318 6.01602L8.33316 4.81602Z" fill="white"/>
<ellipse cx="8.75" cy="17.082" rx="1.25" ry="1.25" stroke="white" stroke-width="1.2"/>
<ellipse cx="14.583" cy="17.082" rx="1.25" ry="1.25" stroke="white" stroke-width="1.2"/>
<path d="M9.58301 6.66602L12.083 9.16602M14.583 6.66602L12.083 9.16602M12.083 9.16602L12.083 2.49935" stroke="white" stroke-width="1.2"/>
</svg>
