<svg width="20" height="20" viewBox="0 0 20 20" fill="none" xmlns="http://www.w3.org/2000/svg">
<path d="M17.4998 18.3296H2.50049L2.50115 12.5L7.50049 10V8.33334H12.5005V10L17.4998 12.5V18.3296Z" stroke="#696F8C" stroke-width="1.5" stroke-linejoin="round"/>
<path d="M11.6663 14.1667C11.6663 15.0871 10.9201 15.8333 9.99967 15.8333C9.0792 15.8333 8.33301 15.0871 8.33301 14.1667C8.33301 13.2462 9.0792 12.5 9.99967 12.5C10.9201 12.5 11.6663 13.2462 11.6663 14.1667Z" stroke="#696F8C" stroke-width="1.5"/>
<path d="M16.9695 4.29196L17.3792 3.66373L17.379 3.66359L16.9695 4.29196ZM14.0274 6.66667H13.2774V7.17764L13.753 7.36464L14.0274 6.66667ZM18.2656 8.33333L17.9911 9.0313C18.2092 9.11708 18.4549 9.09595 18.6552 8.97421C18.8555 8.85246 18.9873 8.64408 19.0116 8.41096L18.2656 8.33333ZM9.9998 2.5L9.99953 3.25L10.0001 3.25L9.9998 2.5ZM3.03017 4.29178L2.62072 3.66341L2.62051 3.66355L3.03017 4.29178ZM5.97224 6.66667L6.2467 7.36465L6.72224 7.17766V6.66667H5.97224ZM1.73407 8.33316L0.988098 8.41079C1.01236 8.6439 1.1442 8.85227 1.34447 8.97402C1.54474 9.09577 1.7904 9.1169 2.00852 9.03114L1.73407 8.33316ZM17.379 3.66359C16.5145 3.10027 15.5629 2.64195 14.2201 2.2851L13.8348 3.73478C15.0206 4.04991 15.8262 4.44213 16.56 4.92033L17.379 3.66359ZM13.2774 3.00994V6.66667H14.7774V3.00994H13.2774ZM13.753 7.36464L17.9911 9.0313L18.5401 7.63536L14.3019 5.9687L13.753 7.36464ZM19.0116 8.41096C19.1465 7.11438 19.3001 4.91634 17.3792 3.66373L16.5598 4.92019C17.6416 5.6256 17.6635 6.87301 17.5196 8.2557L19.0116 8.41096ZM14.2201 2.2851C12.8721 1.92688 11.4337 1.74948 9.99953 1.75L10.0001 3.25C11.3131 3.24953 12.6212 3.41227 13.8348 3.73478L14.2201 2.2851ZM3.43963 4.92015C4.17348 4.44196 4.97906 4.04973 6.16487 3.7346L5.77962 2.28492C4.43679 2.64177 3.48522 3.10009 2.62072 3.66341L3.43963 4.92015ZM5.22224 3.00976V6.66667H6.72224V3.00976H5.22224ZM5.69779 5.96869L1.45962 7.63518L2.00852 9.03114L6.2467 7.36465L5.69779 5.96869ZM2.48004 8.25553C2.33615 6.87284 2.35809 5.62542 3.43984 4.92001L2.62051 3.66355C0.699609 4.91617 0.853164 7.1142 0.988098 8.41079L2.48004 8.25553ZM6.16487 3.7346C7.3784 3.41211 8.68641 3.24952 9.99953 3.25L10.0001 1.75C8.56596 1.74948 7.12765 1.92668 5.77962 2.28492L6.16487 3.7346Z" fill="#696F8C"/>
</svg>
