<svg width="13" height="24" viewBox="0 0 13 24" fill="none" xmlns="http://www.w3.org/2000/svg">
<path d="M10.0712 8.55982C10.312 8.38241 10.3635 8.04333 10.1861 7.80245C10.0483 7.61536 9.91048 7.43751 9.78959 7.28261C9.54827 6.97339 9.21606 6.55927 8.85511 6.14356C8.49651 5.73055 8.09891 5.30357 7.72771 4.97559C7.54273 4.81215 7.35155 4.66184 7.16512 4.54945C6.99357 4.44603 6.75784 4.33203 6.49993 4.33203C6.24203 4.33203 6.00628 4.44603 5.83472 4.54945C5.6483 4.66184 5.45712 4.81215 5.27214 4.97559C4.90094 5.30357 4.50334 5.73055 4.14473 6.14356C3.78379 6.55927 3.45158 6.97339 3.21025 7.28261C3.08937 7.43751 2.95154 7.61536 2.81375 7.80245C2.63634 8.04333 2.6878 8.38241 2.92867 8.55982C3.0255 8.63113 3.1382 8.66546 3.24989 8.66536L6.49993 8.66536L9.74995 8.66536C9.86164 8.66546 9.97434 8.63113 10.0712 8.55982Z" fill="#ADACAC"/>
<path d="M10.0712 15.4402C10.312 15.6176 10.3635 15.9567 10.1861 16.1975C10.0483 16.3846 9.91048 16.5625 9.78959 16.7174C9.54827 17.0266 9.21606 17.4407 8.85511 17.8564C8.49651 18.2695 8.09891 18.6964 7.72771 19.0244C7.54273 19.1879 7.35155 19.3382 7.16512 19.4505C6.99357 19.554 6.75784 19.668 6.49993 19.668C6.24203 19.668 6.00628 19.554 5.83472 19.4505C5.6483 19.3382 5.45712 19.1879 5.27214 19.0244C4.90094 18.6964 4.50334 18.2695 4.14473 17.8564C3.78379 17.4407 3.45158 17.0266 3.21025 16.7174C3.08937 16.5625 2.95154 16.3846 2.81375 16.1975C2.63634 15.9567 2.6878 15.6176 2.92867 15.4402C3.0255 15.3689 3.1382 15.3345 3.24989 15.3346L6.49993 15.3346L9.74995 15.3346C9.86164 15.3345 9.97434 15.3689 10.0712 15.4402Z" fill="#ADACAC"/>
</svg>
