<svg width="205" height="64" viewBox="0 0 205 64" fill="none" xmlns="http://www.w3.org/2000/svg">
<path fill-rule="evenodd" clip-rule="evenodd" d="M9.17987 10.9202C7 15.1984 7 20.799 7 32C7 39.4241 7 44.3879 7.63473 48.137C7.64339 50.205 7.65098 51.9851 7.65098 51.9851C7.65098 57.2957 4.51702 61.8651 0 63.9893C5.41949 63.8899 10.5045 62.4346 14.9326 59.9492C15.8668 60.6561 16.8659 61.2829 17.9202 61.8201C20.2467 63.0055 22.9642 63.5463 26.7607 63.793C27.7558 63.9295 28.772 64 29.8049 64C30.2626 64 30.7172 63.9862 31.168 63.9589C33.4359 64 36.0197 64 39 64H173C184.201 64 189.802 64 194.08 61.8201C197.843 59.9027 200.903 56.8431 202.82 53.0798C205 48.8016 205 43.201 205 32C205 20.799 205 15.1984 202.82 10.9202C200.903 7.15695 197.843 4.09734 194.08 2.17987C189.802 0 184.201 0 173 0H39C27.799 0 22.1984 0 17.9202 2.17987C14.1569 4.09734 11.0973 7.15695 9.17987 10.9202Z" fill="#F4F4F5"/>
</svg>
