<svg width="16" height="14" viewBox="0 0 16 14" fill="none" xmlns="http://www.w3.org/2000/svg">
<path d="M1.3335 13H11.3335C11.3335 10.2711 9.09492 8.05882 6.3335 8.05882C3.57207 8.05882 1.3335 10.2711 1.3335 13Z" stroke="#696F8C" stroke-width="1.2"/>
<path d="M8.8335 3.47059C8.8335 4.83506 7.71421 5.94118 6.3335 5.94118C4.95278 5.94118 3.8335 4.83506 3.8335 3.47059C3.8335 2.10612 4.95278 1 6.3335 1C7.71421 1 8.8335 2.10612 8.8335 3.47059Z" stroke="#696F8C" stroke-width="1.2"/>
<path d="M11.2528 7.08072L14.0799 4.25101M14.667 5.6665C14.667 6.77107 13.7716 7.6665 12.667 7.6665C11.5624 7.6665 10.667 6.77107 10.667 5.6665C10.667 4.56193 11.5624 3.6665 12.667 3.6665C13.7716 3.6665 14.667 4.56193 14.667 5.6665Z" stroke="#696F8C" stroke-width="1.2" stroke-linejoin="round"/>
</svg>
