<svg width="21" height="20" viewBox="0 0 21 20" fill="none" xmlns="http://www.w3.org/2000/svg">
<path d="M2.16669 17.5H14.6667C14.6667 14.0888 11.8685 11.3235 8.41669 11.3235C4.96491 11.3235 2.16669 14.0888 2.16669 17.5Z" stroke="#696F8C" stroke-width="1.5"/>
<path d="M11.5417 5.58824C11.5417 7.29382 10.1426 8.67647 8.41669 8.67647C6.6908 8.67647 5.29169 7.29382 5.29169 5.58824C5.29169 3.88265 6.6908 2.5 8.41669 2.5C10.1426 2.5 11.5417 3.88265 11.5417 5.58824Z" stroke="#696F8C" stroke-width="1.5"/>
<path d="M14.5656 10.1013L18.0995 6.56412M18.8334 8.3335C18.8334 9.71421 17.7141 10.8335 16.3334 10.8335C14.9527 10.8335 13.8334 9.71421 13.8334 8.3335C13.8334 6.95278 14.9527 5.8335 16.3334 5.8335C17.7141 5.8335 18.8334 6.95278 18.8334 8.3335Z" stroke="#696F8C" stroke-width="1.5" stroke-linejoin="round"/>
</svg>
