<svg width="20" height="23" viewBox="0 0 20 23" fill="none" xmlns="http://www.w3.org/2000/svg">
<path d="M11.6665 11.75C13.0472 11.75 14.1665 10.6307 14.1665 9.25C14.1665 7.86929 13.0472 6.75 11.6665 6.75" stroke="#696F8C" stroke-width="1.5"/>
<path d="M1.6665 20.0833H13.3332C13.3332 16.8617 10.7215 14.25 7.49984 14.25C4.27818 14.25 1.6665 16.8617 1.6665 20.0833Z" stroke="#696F8C" stroke-width="1.5"/>
<path d="M15 19.25H17.5C17.5 16.4886 15.2614 14.25 12.5 14.25" stroke="#696F8C" stroke-width="1.5"/>
<path d="M10.4163 8.83464C10.4163 10.4455 9.11051 11.7513 7.49967 11.7513C5.88884 11.7513 4.58301 10.4455 4.58301 8.83464C4.58301 7.2238 5.88884 5.91797 7.49967 5.91797C9.11051 5.91797 10.4163 7.2238 10.4163 8.83464Z" stroke="#696F8C" stroke-width="1.5"/>
</svg>
